<svg version="1.1" xmlns="http://www.w3.org/2000/svg" viewBox="0 0 2990.5902483688883 1590" width="5981.180496737777" height="3180">
  <!-- svg-source:excalidraw -->
  
  <defs>
    <style class="style-fonts">
      @font-face {
        font-family: "Virgil";
        src: url("https://excalidraw.com/Virgil.woff2");
      }
      @font-face {
        font-family: "Cascadia";
        src: url("https://excalidraw.com/Cascadia.woff2");
      }
    </style>
  </defs>
  <rect x="0" y="0" width="2990.5902483688883" height="1590" fill="#ffffff"></rect><g stroke-linecap="round" transform="translate(1229.0000000000002 462.9999999999999) rotate(0 80.5 34.5)"><path d="M17.25 0 M17.25 0 C62.36 -0.85, 106.03 -0.19, 143.75 0 M17.25 0 C55.35 0.44, 92.96 1.53, 143.75 0 M143.75 0 C156.01 0.13, 159.87 6.41, 161 17.25 M143.75 0 C155.69 1.93, 162.52 4.25, 161 17.25 M161 17.25 C162.84 29.71, 162.02 44.04, 161 51.75 M161 17.25 C161.42 27.45, 161.83 36.23, 161 51.75 M161 51.75 C161.71 63.66, 153.58 69.77, 143.75 69 M161 51.75 C160.28 65.05, 155.61 70.02, 143.75 69 M143.75 69 C104.97 71.48, 67.13 69.33, 17.25 69 M143.75 69 C116.2 67.27, 89.02 68.3, 17.25 69 M17.25 69 C5.3 67.88, -1.43 61.78, 0 51.75 M17.25 69 C7.82 69.18, -1.26 64.01, 0 51.75 M0 51.75 C0.39 43.74, -0.64 37.14, 0 17.25 M0 51.75 C0.95 38.28, 0.05 24.27, 0 17.25 M0 17.25 C0.2 7.26, 6.96 -1.98, 17.25 0 M0 17.25 C-1.33 5.45, 4.4 0.64, 17.25 0" stroke="#000000" stroke-width="1" fill="none"></path></g><g transform="translate(1256.590042114258 484.9999999999999) rotate(0 52.90995788574219 12.5)"><text x="52.90995788574219" y="0" font-family="Virgil, Segoe UI Emoji" font-size="20px" fill="#000000" text-anchor="middle" style="white-space: pre;" direction="ltr" dominant-baseline="text-before-edge">cat worker</text></g><g stroke-linecap="round" transform="translate(510 1127.333333333333) rotate(0 118.5 143)"><path d="M32 0 M32 0 C86.9 1.27, 141.33 -0.38, 205 0 M32 0 C76.59 0.86, 122.23 0.27, 205 0 M205 0 C227.15 0.31, 238.65 9.93, 237 32 M205 0 C225.03 -1.34, 236.06 8.68, 237 32 M237 32 C236.05 116, 235.26 199.72, 237 254 M237 32 C235 119.91, 235.27 206.19, 237 254 M237 254 C236.03 273.38, 227.27 284.85, 205 286 M237 254 C237.51 276.16, 224.44 286.05, 205 286 M205 286 C143.25 286.79, 81.01 288.36, 32 286 M205 286 C169.69 287.97, 132.2 287.6, 32 286 M32 286 C12.56 284.31, 0.05 274.01, 0 254 M32 286 C8.81 284.76, 0.32 275.49, 0 254 M0 254 C-0.24 184.25, -2.65 112.36, 0 32 M0 254 C1.28 169.63, 1.16 83.76, 0 32 M0 32 C1.6 11.53, 12.31 1.29, 32 0 M0 32 C-0.8 12.18, 11.84 -2.08, 32 0" stroke="#000000" stroke-width="1" fill="none"></path></g><g transform="translate(543.8800735473633 1132.333333333333) rotate(0 84.61992645263672 25)"><text x="84.61992645263672" y="0" font-family="Virgil, Segoe UI Emoji" font-size="20px" fill="#000000" text-anchor="middle" style="white-space: pre;" direction="ltr" dominant-baseline="text-before-edge">Interviewing Part</text><text x="84.61992645263672" y="25" font-family="Virgil, Segoe UI Emoji" font-size="20px" fill="#000000" text-anchor="middle" style="white-space: pre;" direction="ltr" dominant-baseline="text-before-edge"></text></g><g stroke-linecap="round" transform="translate(533 1183.333333333333) rotate(0 55 23.5)"><path d="M11.75 0 M11.75 0 C40.42 -0.35, 66.58 -0.37, 98.25 0 M11.75 0 C42.15 -0.27, 74.65 -1.16, 98.25 0 M98.25 0 C104.26 -0.81, 111.73 4.71, 110 11.75 M98.25 0 C104.56 1.49, 110.64 2.02, 110 11.75 M110 11.75 C110.51 19.77, 108.81 26.77, 110 35.25 M110 11.75 C109.74 17.9, 109.85 24.86, 110 35.25 M110 35.25 C111.3 42.59, 104.12 48.62, 98.25 47 M110 35.25 C111.15 42.16, 106.42 45.36, 98.25 47 M98.25 47 C66.9 48.34, 36.83 46.35, 11.75 47 M98.25 47 C80.42 47.43, 62.29 46.15, 11.75 47 M11.75 47 C3.18 47.75, -0.44 42.21, 0 35.25 M11.75 47 C5.95 45.19, -1.07 44.42, 0 35.25 M0 35.25 C-0.36 26.11, -0.67 17.26, 0 11.75 M0 35.25 C-0.9 25.78, -0.31 18.54, 0 11.75 M0 11.75 C1.98 2.62, 3.1 -0.62, 11.75 0 M0 11.75 C-1.93 6.05, 4.14 0.32, 11.75 0" stroke="#000000" stroke-width="1" fill="none"></path></g><g transform="translate(553.1100234985352 1194.333333333333) rotate(0 34.889976501464844 12.5)"><text x="34.889976501464844" y="0" font-family="Virgil, Segoe UI Emoji" font-size="20px" fill="#000000" text-anchor="middle" style="white-space: pre;" direction="ltr" dominant-baseline="text-before-edge">Landing</text></g><g stroke-linecap="round" transform="translate(532 1252.833333333333) rotate(0 55 23.5)"><path d="M11.75 0 M11.75 0 C35.95 -0.79, 60.22 -0.61, 98.25 0 M11.75 0 C31.07 0.46, 50.02 0.32, 98.25 0 M98.25 0 C105.46 0.47, 110.78 4.94, 110 11.75 M98.25 0 C104.35 -0.76, 109.86 4.48, 110 11.75 M110 11.75 C109.69 17.52, 108.47 25.97, 110 35.25 M110 11.75 C110.01 20.07, 110.05 27.51, 110 35.25 M110 35.25 C111.67 43.34, 104.41 48.5, 98.25 47 M110 35.25 C110.85 43.33, 105.31 48.9, 98.25 47 M98.25 47 C65 45.28, 34.24 47.26, 11.75 47 M98.25 47 C69.14 46.39, 40.91 47.28, 11.75 47 M11.75 47 C5.54 48.21, -1.87 45.03, 0 35.25 M11.75 47 C1.82 46.15, -0.26 40.86, 0 35.25 M0 35.25 C1.08 27.84, -1.44 22, 0 11.75 M0 35.25 C0.18 30.05, 0.12 23.59, 0 11.75 M0 11.75 C-0.07 2.06, 4.22 -1.04, 11.75 0 M0 11.75 C-0.14 5.48, 4.77 1.62, 11.75 0" stroke="#000000" stroke-width="1" fill="none"></path></g><g transform="translate(556.9800338745117 1263.833333333333) rotate(0 30.01996612548828 12.5)"><text x="30.01996612548828" y="0" font-family="Virgil, Segoe UI Emoji" font-size="20px" fill="#000000" text-anchor="middle" style="white-space: pre;" direction="ltr" dominant-baseline="text-before-edge">Tests</text></g><g stroke-linecap="round" transform="translate(529 1322.5) rotate(0 104 33.5)"><path d="M16.75 0 M16.75 0 C77.18 1.87, 134.38 -0.39, 191.25 0 M16.75 0 C54.31 1.18, 91.24 1.1, 191.25 0 M191.25 0 C201.71 -1.64, 208.37 5.73, 208 16.75 M191.25 0 C204.29 1.39, 205.85 7.82, 208 16.75 M208 16.75 C205.94 22.93, 206.68 30.15, 208 50.25 M208 16.75 C207.25 27.99, 206.98 40.43, 208 50.25 M208 50.25 C207.99 63.33, 202.28 68.31, 191.25 67 M208 50.25 C207.91 59.28, 202.77 65.81, 191.25 67 M191.25 67 C141.36 68.38, 89.88 69.57, 16.75 67 M191.25 67 C135.02 66.85, 78.15 66.26, 16.75 67 M16.75 67 C5.87 67.87, 1.73 62.91, 0 50.25 M16.75 67 C7.56 65.96, 2.27 63.6, 0 50.25 M0 50.25 C-0.81 39.38, -0.33 27.2, 0 16.75 M0 50.25 C0.72 40.1, 1.04 28.44, 0 16.75 M0 16.75 C-1.09 6.54, 3.74 -1.78, 16.75 0 M0 16.75 C-2.12 5.45, 4.1 -0.74, 16.75 0" stroke="#000000" stroke-width="1" fill="none"></path></g><g transform="translate(569.1300506591797 1343.5) rotate(0 63.86994934082031 12.5)"><text x="63.86994934082031" y="0" font-family="Virgil, Segoe UI Emoji" font-size="20px" fill="#000000" text-anchor="middle" style="white-space: pre;" direction="ltr" dominant-baseline="text-before-edge">Internal tool</text></g><g mask="url(#mask-R6xU1zOIzFiw9tDsqZmTc)" stroke-linecap="round"><g transform="translate(750.806896551724 1334.8888676774513) rotate(0 139.9009160156515 -338.1700514829022)"><path d="M-1.2 -0.31 C45.55 -112.79, 234 -561.61, 281 -674.05 M0.37 -1.52 C46.99 -114.46, 233.8 -563.96, 280.47 -676.03" stroke="#000000" stroke-width="1" fill="none"></path></g><g transform="translate(750.806896551724 1334.8888676774513) rotate(0 139.9009160156515 -338.1700514829022)"><path d="M278.59 -644.75 C279.82 -655.23, 278.79 -667.03, 280.36 -677.64 M278.93 -647.02 C278.97 -653.48, 279.27 -661.03, 280.13 -675.34" stroke="#000000" stroke-width="1" fill="none"></path></g><g transform="translate(750.806896551724 1334.8888676774513) rotate(0 139.9009160156515 -338.1700514829022)"><path d="M259.65 -652.63 C267.38 -660.24, 272.81 -669.35, 280.36 -677.64 M259.99 -654.9 C264.59 -659.32, 269.5 -664.95, 280.13 -675.34" stroke="#000000" stroke-width="1" fill="none"></path></g></g><mask id="mask-R6xU1zOIzFiw9tDsqZmTc"><rect x="0" y="0" fill="#fff" width="1131.0211012496243" height="2109.2076204123737"></rect><rect x="837.2940419304593" y="985.2294913099902" fill="#000" width="107.23991394042969" height="25" opacity="1"></rect></mask><g transform="translate(837.2940419304593 985.2294913099902) rotate(0 53.41377063691613 11.48932488455904)"><text x="53.619956970214844" y="0" font-family="Virgil, Segoe UI Emoji" font-size="20px" fill="#000000" text-anchor="middle" style="white-space: pre;" direction="ltr" dominant-baseline="text-before-edge">add worker</text></g><g transform="translate(10 1142.333333333333) rotate(0 241.10977172851562 125)"><text x="0" y="0" font-family="Virgil, Segoe UI Emoji" font-size="20px" fill="#000000" text-anchor="start" style="white-space: pre;" direction="ltr" dominant-baseline="text-before-edge">a separate part of the system:</text><text x="0" y="25" font-family="Virgil, Segoe UI Emoji" font-size="20px" fill="#000000" text-anchor="start" style="white-space: pre;" direction="ltr" dominant-baseline="text-before-edge">- isn't critical</text><text x="0" y="50" font-family="Virgil, Segoe UI Emoji" font-size="20px" fill="#000000" text-anchor="start" style="white-space: pre;" direction="ltr" dominant-baseline="text-before-edge">- public and may be ddosed</text><text x="0" y="75" font-family="Virgil, Segoe UI Emoji" font-size="20px" fill="#000000" text-anchor="start" style="white-space: pre;" direction="ltr" dominant-baseline="text-before-edge">- changing frequently</text><text x="0" y="100" font-family="Virgil, Segoe UI Emoji" font-size="20px" fill="#000000" text-anchor="start" style="white-space: pre;" direction="ltr" dominant-baseline="text-before-edge">- low amount of workers (20) =&gt; </text><text x="0" y="125" font-family="Virgil, Segoe UI Emoji" font-size="20px" fill="#000000" text-anchor="start" style="white-space: pre;" direction="ltr" dominant-baseline="text-before-edge">managers can add manually</text><text x="0" y="150" font-family="Virgil, Segoe UI Emoji" font-size="20px" fill="#000000" text-anchor="start" style="white-space: pre;" direction="ltr" dominant-baseline="text-before-edge"></text><text x="0" y="175" font-family="Virgil, Segoe UI Emoji" font-size="20px" fill="#000000" text-anchor="start" style="white-space: pre;" direction="ltr" dominant-baseline="text-before-edge">i'd make it as a no-code landing, a few shared </text><text x="0" y="200" font-family="Virgil, Segoe UI Emoji" font-size="20px" fill="#000000" text-anchor="start" style="white-space: pre;" direction="ltr" dominant-baseline="text-before-edge">google sheets for tests, and simple internal tool</text><text x="0" y="225" font-family="Virgil, Segoe UI Emoji" font-size="20px" fill="#000000" text-anchor="start" style="white-space: pre;" direction="ltr" dominant-baseline="text-before-edge">wi</text></g><g stroke-linecap="round" transform="translate(1602.1666666666663 1325.3333333333333) rotate(0 111 77.5)"><path d="M32 0 M32 0 C83.77 2.02, 137.85 0.11, 190 0 M32 0 C73.37 -2.06, 116.72 -0.32, 190 0 M190 0 C211.75 0.51, 221.34 9.6, 222 32 M190 0 C209.54 0.97, 221.87 11.77, 222 32 M222 32 C220.26 55.34, 220.63 78.48, 222 123 M222 32 C221.93 54.53, 221.96 74.77, 222 123 M222 123 C223.05 144.23, 210.26 154.09, 190 155 M222 123 C219.92 144.95, 210.72 157, 190 155 M190 155 C157.82 155.65, 124.17 155.96, 32 155 M190 155 C151.71 154.86, 113.55 153.56, 32 155 M32 155 C10.94 156.88, 0.78 142.83, 0 123 M32 155 C12.24 155.44, 1.85 143.59, 0 123 M0 123 C0.8 89.59, 1.2 57.07, 0 32 M0 123 C0.27 104.57, -0.06 85.11, 0 32 M0 32 C-1.38 12.37, 11.94 -0.19, 32 0 M0 32 C1.91 11.79, 9.33 -1.37, 32 0" stroke="#000000" stroke-width="1" fill="none"></path></g><g transform="translate(1642.3767267862952 1330.3333333333333) rotate(0 70.7899398803711 12.5)"><text x="70.7899398803711" y="0" font-family="Virgil, Segoe UI Emoji" font-size="20px" fill="#000000" text-anchor="middle" style="white-space: pre;" direction="ltr" dominant-baseline="text-before-edge">Quality Review</text></g><g stroke-linecap="round" transform="translate(1163.5000000000002 545.8333333333333) rotate(0 60.16666666666663 31.97262479871173)"><path d="M15.99 0 M15.99 0 C50.31 -2.06, 84.53 0.14, 104.35 0 M15.99 0 C45.19 0.38, 72.81 -1.36, 104.35 0 M104.35 0 C116.04 1.78, 119.08 3.76, 120.33 15.99 M104.35 0 C115.88 -1.7, 118.31 6.06, 120.33 15.99 M120.33 15.99 C122.33 27.48, 120.98 39.3, 120.33 47.96 M120.33 15.99 C119.04 26.72, 119.29 39.77, 120.33 47.96 M120.33 47.96 C120.25 59.29, 116.97 63.17, 104.35 63.95 M120.33 47.96 C119.43 57.73, 115.75 64.18, 104.35 63.95 M104.35 63.95 C72.31 65.44, 39.94 63.62, 15.99 63.95 M104.35 63.95 C71.59 63.83, 40.36 63.58, 15.99 63.95 M15.99 63.95 C5.45 62.82, 1.87 59.89, 0 47.96 M15.99 63.95 C4.18 64.06, 2.05 59.01, 0 47.96 M0 47.96 C0.93 38.57, 0.32 23.97, 0 15.99 M0 47.96 C-0.63 37.25, -0.77 27.24, 0 15.99 M0 15.99 C1.8 3.67, 6.36 0.84, 15.99 0 M0 15.99 C-0.47 6.77, 5.96 -1.73, 15.99 0" stroke="#000000" stroke-width="1" fill="none"></path></g><g transform="translate(1189.8259302775068 570.8051121083563) rotate(0 33.840736389160156 7.000846023688663)"><text x="33.840736389160156" y="0" font-family="Virgil, Segoe UI Emoji" font-size="11.20135363790186px" fill="#000000" text-anchor="middle" style="white-space: pre;" direction="ltr" dominant-baseline="text-before-edge">help request</text></g><g mask="url(#mask-OHbdA6sj8djLlvddNDSQS)" stroke-linecap="round"><g transform="translate(1265.138913198354 654.1685211173153) rotate(0 176.79268563128483 334.1322623309599)"><path d="M1.04 -0.89 C60.08 110.28, 294.5 556.11, 353.46 667.58 M0.12 1.26 C59.03 112.58, 293.19 558.4, 352.24 669.15" stroke="#5f3dc4" stroke-width="1" fill="none"></path></g><g transform="translate(1265.138913198354 654.1685211173153) rotate(0 176.79268563128483 334.1322623309599)"><path d="M328.51 648.16 C335.42 654.9, 341.21 657.46, 350.81 669.51 M329.29 648.76 C335.6 653.84, 342.02 658.2, 352.04 669.1" stroke="#5f3dc4" stroke-width="1" fill="none"></path></g><g transform="translate(1265.138913198354 654.1685211173153) rotate(0 176.79268563128483 334.1322623309599)"><path d="M346.65 638.57 C349.36 647.71, 350.9 652.52, 350.81 669.51 M347.43 639.17 C349.34 646.75, 351.28 653.48, 352.04 669.1" stroke="#5f3dc4" stroke-width="1" fill="none"></path></g></g><mask id="mask-OHbdA6sj8djLlvddNDSQS"><rect x="0" y="0" fill="#fff" width="1719.12473588295" height="1421.6757699098453"></rect><rect x="1319.531940507449" y="975.4221455135802" fill="#000" width="245.19976806640625" height="25" opacity="1"></rect></mask><g transform="translate(1319.5319405074488 975.4221455135802) rotate(0 122.39965832218991 12.878637934695007)"><text x="122.59988403320312" y="0" font-family="Virgil, Segoe UI Emoji" font-size="20px" fill="#5f3dc4" text-anchor="middle" style="white-space: pre;" direction="ltr" dominant-baseline="text-before-edge">help requests (expanded)</text></g><g stroke-linecap="round" transform="translate(1896.8333333333337 666.833333333333) rotate(0 237.5 181.5)"><path d="M32 0 M32 0 C148.91 -3.02, 267.04 -1.75, 443 0 M32 0 C176.71 0.44, 320.97 0.37, 443 0 M443 0 C463.3 0.77, 475.61 12.42, 475 32 M443 0 C462.37 0.18, 474.14 10.06, 475 32 M475 32 C474.15 123.59, 472.83 214.24, 475 331 M475 32 C474.73 101.07, 474.87 171.89, 475 331 M475 331 C476.48 350.74, 462.46 363.53, 443 363 M475 331 C475.47 350.48, 463.6 361.21, 443 363 M443 363 C280.86 360.11, 117.74 361.38, 32 363 M443 363 C304.07 361.17, 165.13 361.55, 32 363 M32 363 C11.14 361.18, -0.96 353.16, 0 331 M32 363 C10.79 363.58, -2.27 351.32, 0 331 M0 331 C-1.51 219.6, -1.51 108.15, 0 32 M0 331 C-1.28 229.56, -1.68 127.75, 0 32 M0 32 C1.25 10.52, 11.76 -1.28, 32 0 M0 32 C-2.21 11.13, 12.2 -1.41, 32 0" stroke="#000000" stroke-width="1" fill="none"></path></g><g transform="translate(2090.493375142416 671.833333333333) rotate(0 43.83995819091797 12.5)"><text x="43.83995819091797" y="0" font-family="Virgil, Segoe UI Emoji" font-size="20px" fill="#000000" text-anchor="middle" style="white-space: pre;" direction="ltr" dominant-baseline="text-before-edge">payments</text></g><g mask="url(#mask-WtAIw26Mxthpw43gBCuUg)" stroke-linecap="round"><g transform="translate(1422.5751620865033 602.5013875440819) rotate(0 224.33493501613611 109.98182161184154)"><path d="M-1.15 -0.83 C73.63 35.77, 374.5 183.89, 449.82 220.8 M0.45 1.34 C74.96 38.08, 373.79 182.1, 448.79 218.87" stroke="#5f3dc4" stroke-width="1" fill="none"></path></g><g transform="translate(1422.5751620865033 602.5013875440819) rotate(0 224.33493501613611 109.98182161184154)"><path d="M417.55 215.52 C431.36 218.59, 442.78 217.19, 449.51 219.52 M418.36 215.35 C428.75 216.75, 438.42 216.75, 449.46 218.87" stroke="#5f3dc4" stroke-width="1" fill="none"></path></g><g transform="translate(1422.5751620865033 602.5013875440819) rotate(0 224.33493501613611 109.98182161184154)"><path d="M426.52 197.06 C436.97 207.32, 444.86 213.19, 449.51 219.52 M427.32 196.89 C434.88 204.26, 441.68 210.16, 449.46 218.87" stroke="#5f3dc4" stroke-width="1" fill="none"></path></g></g><mask id="mask-WtAIw26Mxthpw43gBCuUg"><rect x="0" y="0" fill="#fff" width="1972.5562885572692" height="922.92457329854"></rect><rect x="1524.9658412886831" y="700.2129804213109" fill="#000" width="245.19976806640625" height="25" opacity="1"></rect></mask><g transform="translate(1524.9658412886831 700.2129804213109) rotate(0 121.94425581395626 12.27022873461246)"><text x="122.59988403320312" y="0" font-family="Virgil, Segoe UI Emoji" font-size="20px" fill="#5f3dc4" text-anchor="middle" style="white-space: pre;" direction="ltr" dominant-baseline="text-before-edge">help requests (expanded)</text></g><g stroke-linecap="round" transform="translate(2037.3333333333333 266.6666666666667) rotate(0 110.83333333333326 56.66666666666666)"><path d="M28.33 0 M28.33 0 C79.7 2.09, 131.24 3.03, 193.33 0 M28.33 0 C87.66 -0.63, 146.57 -0.21, 193.33 0 M193.33 0 C212.83 -1.82, 223.53 8.78, 221.67 28.33 M193.33 0 C211.15 -0.63, 220.27 10.72, 221.67 28.33 M221.67 28.33 C223.4 45.19, 223.47 63.6, 221.67 85 M221.67 28.33 C222.45 48.47, 222.65 68.53, 221.67 85 M221.67 85 C223.37 104.33, 210.59 112.67, 193.33 113.33 M221.67 85 C222.79 106.08, 213.44 112.21, 193.33 113.33 M193.33 113.33 C138.58 113.05, 86.38 112.9, 28.33 113.33 M193.33 113.33 C142 113.37, 88.82 113.81, 28.33 113.33 M28.33 113.33 C8.05 112.23, 0.61 104.05, 0 85 M28.33 113.33 C8.93 111.71, 0.46 104.84, 0 85 M0 85 C-2.06 69.04, -0.02 50.97, 0 28.33 M0 85 C0.25 70.69, 0.58 58.72, 0 28.33 M0 28.33 C1.27 9.55, 10.33 1.31, 28.33 0 M0 28.33 C-1.26 9.91, 7.44 -0.74, 28.33 0" stroke="#000000" stroke-width="1" fill="none"></path></g><g transform="translate(2087.8967310587564 310.83333333333337) rotate(0 60.269935607910156 12.5)"><text x="60.269935607910156" y="0" font-family="Virgil, Segoe UI Emoji" font-size="20px" fill="#000000" text-anchor="middle" style="white-space: pre;" direction="ltr" dominant-baseline="text-before-edge">notifications</text></g><g stroke-linecap="round" transform="translate(1077.833333333333 53.83333333333337) rotate(0 109.5 54.5)"><path d="M27.25 0 M27.25 0 C79.05 -0.44, 130.54 -1.07, 191.75 0 M27.25 0 C78.01 -0.83, 128.47 -0.61, 191.75 0 M191.75 0 C211.51 -1.46, 217.69 7.93, 219 27.25 M191.75 0 C208.9 1.65, 219.2 8.96, 219 27.25 M219 27.25 C216.67 44.57, 217.6 61.64, 219 81.75 M219 27.25 C218.38 45.94, 217.94 65.17, 219 81.75 M219 81.75 C218.15 98.19, 211.68 109.11, 191.75 109 M219 81.75 C218.17 98.33, 209.29 106.89, 191.75 109 M191.75 109 C136.69 109.77, 79.13 110.85, 27.25 109 M191.75 109 C149.57 108.13, 109.94 108.76, 27.25 109 M27.25 109 C11.07 109.35, -0.1 100.17, 0 81.75 M27.25 109 C11.14 108.39, -1.88 100.68, 0 81.75 M0 81.75 C-0.35 63.17, -1.74 46.02, 0 27.25 M0 81.75 C-1.36 67.96, -1.19 54.3, 0 27.25 M0 27.25 C-1.99 7.73, 9.94 0.55, 27.25 0 M0 27.25 C-0.31 8.14, 9.99 -1.14, 27.25 0" stroke="#000000" stroke-width="1" fill="none"></path></g><g transform="translate(1110.2133916219072 95.83333333333337) rotate(0 77.11994171142578 12.5)"><text x="77.11994171142578" y="0" font-family="Virgil, Segoe UI Emoji" font-size="20px" fill="#000000" text-anchor="middle" style="white-space: pre;" direction="ltr" dominant-baseline="text-before-edge">Cat Worker App</text></g><g mask="url(#mask-ZQWP2jvFqf3aTlaMPJP_T)" stroke-linecap="round"><g transform="translate(2017.9025975765367 307.3506585409265) rotate(0 -285.91828283765426 38.37265303168154)"><path d="M1.17 -0.2 C-94.37 12.6, -477.35 63.8, -573.01 76.68 M0.33 -1.34 C-94.85 11.64, -474.98 64.78, -570.66 78.09" stroke="#5f3dc4" stroke-width="1" fill="none"></path></g><g transform="translate(2017.9025975765367 307.3506585409265) rotate(0 -285.91828283765426 38.37265303168154)"><path d="M-544.48 62.89 C-553.1 68.08, -560.94 74.02, -569.42 79.58 M-543.98 64.96 C-554.2 69.72, -562.51 73.64, -570.81 79" stroke="#5f3dc4" stroke-width="1" fill="none"></path></g><g transform="translate(2017.9025975765367 307.3506585409265) rotate(0 -285.91828283765426 38.37265303168154)"><path d="M-541.65 83.22 C-551.16 81.89, -559.92 81.28, -569.42 79.58 M-541.15 85.28 C-552.45 82.64, -561.79 79.16, -570.81 79" stroke="#5f3dc4" stroke-width="1" fill="none"></path></g></g><mask id="mask-ZQWP2jvFqf3aTlaMPJP_T"><rect x="0" y="0" fill="#fff" width="2690.2266021868863" height="484.2677723866601"></rect><rect x="1708.8306221268303" y="333.3092154637933" fill="#000" width="45.8199462890625" height="25" opacity="1"></rect></mask><g transform="translate(1708.8306221268303 333.3092154637933) rotate(0 23.153692612052055 12.414096108814718)"><text x="22.90997314453125" y="0" font-family="Virgil, Segoe UI Emoji" font-size="20px" fill="#5f3dc4" text-anchor="middle" style="white-space: pre;" direction="ltr" dominant-baseline="text-before-edge">notif</text></g><g stroke-linecap="round" transform="translate(1623.1666666666665 1388.333333333333) rotate(0 70.83333333333337 20.833333333333258)"><path d="M10.42 0 M10.42 0 C46.25 3.04, 83.08 0.79, 131.25 0 M10.42 0 C46.45 -0.64, 81.96 -0.04, 131.25 0 M131.25 0 C139.01 0.92, 140.76 4.15, 141.67 10.42 M131.25 0 C137.19 -0.09, 142.76 5.19, 141.67 10.42 M141.67 10.42 C139.91 19.85, 142.85 28.38, 141.67 31.25 M141.67 10.42 C141.27 17.77, 141.78 24.34, 141.67 31.25 M141.67 31.25 C143.65 37.61, 137.78 40.44, 131.25 41.67 M141.67 31.25 C142.54 40.22, 138.21 43.96, 131.25 41.67 M131.25 41.67 C103.46 43.81, 75.14 41.12, 10.42 41.67 M131.25 41.67 C90.13 41.51, 51.2 42.72, 10.42 41.67 M10.42 41.67 C3.51 40.95, -0.5 36.22, 0 31.25 M10.42 41.67 C5.6 42.57, 0.64 37.61, 0 31.25 M0 31.25 C0.74 25.22, -1.76 14.84, 0 10.42 M0 31.25 C1.03 23.84, 0.59 18.15, 0 10.42 M0 10.42 C-0.87 1.61, 2.3 -0.55, 10.42 0 M0 10.42 C-0.32 3.41, 1.99 1.55, 10.42 0" stroke="#000000" stroke-width="1" fill="none"></path></g><g transform="translate(1633.7900619506836 1396.666666666666) rotate(0 60.209938049316406 12.5)"><text x="60.209938049316406" y="0" font-family="Virgil, Segoe UI Emoji" font-size="20px" fill="#000000" text-anchor="middle" style="white-space: pre;" direction="ltr" dominant-baseline="text-before-edge">review forms</text></g><g stroke-linecap="round" transform="translate(564.0000000000002 1461.6666666666665) rotate(0 38.5 42.5)"><path d="M49.62 1.13 C56 2.92, 62.9 9.61, 67.37 15.69 C71.84 21.76, 75.66 29.84, 76.47 37.56 C77.28 45.29, 75.18 55.12, 72.22 62.02 C69.26 68.93, 64.38 75.05, 58.72 79.01 C53.06 82.97, 45.11 86.13, 38.25 85.79 C31.38 85.45, 23.34 81.38, 17.54 76.98 C11.73 72.58, 6.26 66.29, 3.4 59.38 C0.55 52.48, -0.55 43.09, 0.43 35.55 C1.41 28.01, 4.66 19.77, 9.31 14.12 C13.97 8.48, 20.6 3.13, 28.37 1.69 C36.15 0.26, 50.68 4.33, 55.98 5.51 C61.28 6.69, 60.45 8.2, 60.2 8.78 M55.23 4.84 C61.1 7.38, 67.28 13.75, 70.75 20.63 C74.23 27.51, 76.22 38.46, 76.08 46.13 C75.95 53.79, 73.74 60.79, 69.95 66.6 C66.16 72.41, 59.64 77.78, 53.35 80.96 C47.05 84.14, 38.92 87.03, 32.18 85.68 C25.45 84.33, 18.16 78.63, 12.94 72.87 C7.72 67.12, 2.78 58.44, 0.85 51.15 C-1.08 43.86, -0.73 35.99, 1.36 29.12 C3.45 22.25, 7.64 14.71, 13.39 9.94 C19.14 5.17, 28.54 1.13, 35.87 0.48 C43.19 -0.17, 53.75 5.42, 57.34 6.04 C60.94 6.66, 57.86 3.68, 57.45 4.18" stroke="#000000" stroke-width="1" fill="none"></path></g><g transform="translate(589.0563953330095 1491.6146284662382) rotate(0 13.219993591308594 12.5)"><text x="13.219993591308594" y="0" font-family="Virgil, Segoe UI Emoji" font-size="20px" fill="#000000" text-anchor="middle" style="white-space: pre;" direction="ltr" dominant-baseline="text-before-edge">CR</text></g><g transform="translate(480.66666666666674 1549.9999999999995) rotate(0 79.93993377685547 12.5)"><text x="0" y="0" font-family="Virgil, Segoe UI Emoji" font-size="20px" fill="#000000" text-anchor="start" style="white-space: pre;" direction="ltr" dominant-baseline="text-before-edge">cat recruiter :D</text></g><g stroke-linecap="round" transform="translate(1662.1666666666667 1495) rotate(0 38.5 42.5)"><path d="M52.38 1.97 C58.96 3.9, 65.78 10.6, 69.78 16.7 C73.77 22.8, 75.8 30.83, 76.36 38.57 C76.91 46.31, 76.44 56.23, 73.09 63.16 C69.74 70.09, 62.57 76.43, 56.26 80.16 C49.94 83.89, 42.07 86.07, 35.21 85.54 C28.35 85, 20.47 81.53, 15.1 76.95 C9.72 72.36, 5.49 65.31, 2.97 58.03 C0.45 50.75, -1.25 40.97, -0.02 33.28 C1.2 25.59, 5.09 17.26, 10.31 11.9 C15.53 6.53, 23.91 2.64, 31.31 1.11 C38.71 -0.43, 50.73 1.97, 54.71 2.69 C58.68 3.41, 55.45 4.47, 55.15 5.43 M41.64 1.42 C48.24 1.45, 56.27 3.57, 61.83 8.24 C67.39 12.9, 72.65 21.95, 74.99 29.43 C77.33 36.91, 77.71 45.66, 75.85 53.14 C74 60.62, 68.87 68.92, 63.89 74.29 C58.91 79.67, 52.8 84.11, 45.98 85.38 C39.16 86.66, 29.25 85.01, 22.97 81.93 C16.69 78.86, 11.88 73.1, 8.3 66.95 C4.72 60.8, 2.2 52.65, 1.49 45.04 C0.78 37.42, 0.73 27.9, 4.04 21.28 C7.35 14.66, 15.04 8.79, 21.36 5.31 C27.68 1.82, 38.43 1.29, 41.94 0.35 C45.46 -0.58, 42.39 -0.82, 42.44 -0.32" stroke="#000000" stroke-width="1" fill="none"></path></g><g transform="translate(1686.8330626100276 1524.9479617995717) rotate(0 13.609992980957031 12.5)"><text x="13.609992980957031" y="0" font-family="Virgil, Segoe UI Emoji" font-size="20px" fill="#000000" text-anchor="middle" style="white-space: pre;" direction="ltr" dominant-baseline="text-before-edge">QA</text></g><g stroke-linecap="round" transform="translate(657.1666666666667 1457.5) rotate(0 46.5 43.5)"><path d="M53.64 0.09 C61.77 0.69, 71.45 6.54, 77.82 11.97 C84.2 17.39, 89.64 25.07, 91.88 32.64 C94.12 40.21, 93.92 50.07, 91.26 57.39 C88.61 64.71, 82.48 71.75, 75.93 76.54 C69.37 81.33, 60.3 85.19, 51.96 86.15 C43.63 87.12, 33.56 85.61, 25.92 82.33 C18.28 79.05, 10.47 73.01, 6.12 66.47 C1.76 59.93, -0.34 51.1, -0.21 43.1 C-0.08 35.09, 2.34 24.91, 6.89 18.46 C11.44 12.01, 18.71 7.35, 27.11 4.4 C35.51 1.46, 52.01 1.02, 57.28 0.78 C62.55 0.55, 59 2.25, 58.74 2.97 M36.61 0.74 C44.28 -1.69, 54.38 0.46, 61.96 2.99 C69.55 5.52, 77.18 9.86, 82.14 15.93 C87.1 21.99, 90.6 31.3, 91.73 39.38 C92.86 47.47, 92.9 57.45, 88.92 64.45 C84.94 71.45, 75.6 77.52, 67.85 81.4 C60.11 85.27, 50.77 88.36, 42.46 87.72 C34.14 87.08, 24.42 82.2, 17.95 77.55 C11.49 72.9, 6.35 66.73, 3.69 59.79 C1.02 52.86, 0.44 43.79, 1.99 35.95 C3.54 28.11, 7.53 18.36, 12.98 12.76 C18.43 7.16, 30.9 4.3, 34.7 2.36 C38.49 0.42, 35.12 0.42, 35.77 1.11" stroke="#000000" stroke-width="1" fill="none"></path></g><g transform="translate(679.5462187365118 1476.2408550183854) rotate(0 24.23998260498047 25)"><text x="24.23998260498047" y="0" font-family="Virgil, Segoe UI Emoji" font-size="20px" fill="#000000" text-anchor="middle" style="white-space: pre;" direction="ltr" dominant-baseline="text-before-edge">candi</text><text x="24.23998260498047" y="25" font-family="Virgil, Segoe UI Emoji" font-size="20px" fill="#000000" text-anchor="middle" style="white-space: pre;" direction="ltr" dominant-baseline="text-before-edge">date</text></g><g stroke-linecap="round" transform="translate(2059.666666666666 1162.5) rotate(0 111 77.5)"><path d="M32 0 M32 0 C75.24 -0.6, 120.26 0.9, 190 0 M32 0 C68.46 -1.12, 105.5 -0.37, 190 0 M190 0 C211.82 -1.45, 220.24 11.47, 222 32 M190 0 C211.48 1.38, 221.59 9.78, 222 32 M222 32 C222.19 56.98, 222.13 79.96, 222 123 M222 32 C222.51 65.47, 222.93 99.5, 222 123 M222 123 C223.82 144.57, 212.96 156.19, 190 155 M222 123 C222.67 146.55, 209.59 153.15, 190 155 M190 155 C153.21 153.82, 119.76 153.84, 32 155 M190 155 C136.25 153.59, 81.44 153.63, 32 155 M32 155 C10.54 154.68, 1.8 146.15, 0 123 M32 155 C11.42 155.99, -2.24 146.3, 0 123 M0 123 C0.86 87.8, -1.42 55.64, 0 32 M0 123 C0.48 103.88, 0.31 85.09, 0 32 M0 32 C1.01 9.01, 10.71 1.98, 32 0 M0 32 C-1.07 11.4, 11.79 0.75, 32 0" stroke="#000000" stroke-width="1" fill="none"></path></g><g transform="translate(2146.8466898600254 1167.5) rotate(0 23.819976806640625 12.5)"><text x="23.819976806640625" y="0" font-family="Virgil, Segoe UI Emoji" font-size="20px" fill="#000000" text-anchor="middle" style="white-space: pre;" direction="ltr" dominant-baseline="text-before-edge">Bets</text></g><g stroke-linecap="round" transform="translate(2094 1224.9999999999998) rotate(0 56.66666666666674 23.33333333333337)"><path d="M11.67 0 M11.67 0 C35.12 0.61, 57.52 -1.97, 101.67 0 M11.67 0 C46.81 -1.11, 82.67 0.21, 101.67 0 M101.67 0 C110.72 -1.78, 111.55 4.62, 113.33 11.67 M101.67 0 C110.9 0.38, 111.97 4.01, 113.33 11.67 M113.33 11.67 C112.06 19.69, 112.93 23.74, 113.33 35 M113.33 11.67 C112.7 20.18, 113.9 29.31, 113.33 35 M113.33 35 C112.97 42.7, 108.61 46.91, 101.67 46.67 M113.33 35 C114.23 44.88, 109.66 45.75, 101.67 46.67 M101.67 46.67 C78.24 45.2, 50.6 45.17, 11.67 46.67 M101.67 46.67 C70.36 46.79, 39.76 47.86, 11.67 46.67 M11.67 46.67 C2.74 46.46, -1.32 44.03, 0 35 M11.67 46.67 C2 47.38, 0.44 43.24, 0 35 M0 35 C0.62 27.78, 0.66 19.37, 0 11.67 M0 35 C-0.32 26.95, -0.13 17, 0 11.67 M0 11.67 C0.5 3.48, 2.18 -1.67, 11.67 0 M0 11.67 C2.23 5.78, 4.19 0.52, 11.67 0" stroke="#000000" stroke-width="1" fill="none"></path></g><g transform="translate(2126.846689860026 1235.833333333333) rotate(0 23.819976806640625 12.5)"><text x="23.819976806640625" y="0" font-family="Virgil, Segoe UI Emoji" font-size="20px" fill="#000000" text-anchor="middle" style="white-space: pre;" direction="ltr" dominant-baseline="text-before-edge">Bets</text></g><g mask="url(#mask-qMdnhgEwCzXZtHRqcrEwd)" stroke-linecap="round"><g transform="translate(1360.4929886974908 659.4702587941198) rotate(0 342.96266981312374 260.4709036151613)"><path d="M0.11 -0.48 C114.57 86.46, 572.78 435.47, 687.21 522.72 M-1.29 -1.78 C112.94 85.31, 571.02 433.69, 686.11 520.84" stroke="#5f3dc4" stroke-width="1" fill="none"></path></g><g transform="translate(1360.4929886974908 659.4702587941198) rotate(0 342.96266981312374 260.4709036151613)"><path d="M656.65 511.46 C668.01 513.62, 678.24 517.08, 684.47 519.94 M657.53 511.21 C668.38 515.1, 676.92 517.77, 685.44 521.46" stroke="#5f3dc4" stroke-width="1" fill="none"></path></g><g transform="translate(1360.4929886974908 659.4702587941198) rotate(0 342.96266981312374 260.4709036151613)"><path d="M669.06 495.11 C676.36 502.83, 682.39 511.82, 684.47 519.94 M669.94 494.86 C676.56 504.57, 680.78 512.95, 685.44 521.46" stroke="#5f3dc4" stroke-width="1" fill="none"></path></g></g><mask id="mask-qMdnhgEwCzXZtHRqcrEwd"><rect x="0" y="0" fill="#fff" width="2148.010970137931" height="1281.725078923016"></rect><rect x="1581.6520953845077" y="908.0976688585679" fill="#000" width="245.19976806640625" height="25" opacity="1"></rect></mask><g transform="translate(1581.652095384508 908.097668858568) rotate(0 121.80356312610661 11.84349355071322)"><text x="122.59988403320312" y="0" font-family="Virgil, Segoe UI Emoji" font-size="20px" fill="#5f3dc4" text-anchor="middle" style="white-space: pre;" direction="ltr" dominant-baseline="text-before-edge">help requests (expanded)</text></g><g transform="translate(2294.556894938151 1185) rotate(0 81.4099349975586 25)"><text x="0" y="0" font-family="Virgil, Segoe UI Emoji" font-size="20px" fill="#000000" text-anchor="start" style="white-space: pre;" direction="ltr" dominant-baseline="text-before-edge">not important</text><text x="0" y="25" font-family="Virgil, Segoe UI Emoji" font-size="20px" fill="#000000" text-anchor="start" style="white-space: pre;" direction="ltr" dominant-baseline="text-before-edge">rarily changeable</text></g><g transform="translate(1835.9233983357744 1418.333333333333) rotate(0 227.69984436035156 25)"><text x="0" y="0" font-family="Virgil, Segoe UI Emoji" font-size="20px" fill="#000000" text-anchor="start" style="white-space: pre;" direction="ltr" dominant-baseline="text-before-edge">not sync with the main process</text><text x="0" y="25" font-family="Virgil, Segoe UI Emoji" font-size="20px" fill="#000000" text-anchor="start" style="white-space: pre;" direction="ltr" dominant-baseline="text-before-edge">might be part of "HELP REQUEST ADMIN" (?)</text></g><g stroke-linecap="round" transform="translate(2139.5 745.4999999999999) rotate(0 109.5 111.5)"><path d="M32 0 M32 0 C81.46 -0.03, 132.75 2.32, 187 0 M32 0 C69.4 0.63, 106.47 0.81, 187 0 M187 0 C208.33 1.83, 218.73 12.2, 219 32 M187 0 C208.47 -1.54, 217.76 9.15, 219 32 M219 32 C219.24 64.7, 217.88 101.47, 219 191 M219 32 C217.76 69.35, 217.31 107.38, 219 191 M219 191 C217.69 212.7, 206.67 221.52, 187 223 M219 191 C220.24 213.54, 210.03 222.32, 187 223 M187 223 C133.35 221.26, 77.58 224.27, 32 223 M187 223 C128.08 222.51, 69.16 221.6, 32 223 M32 223 C9.95 221.36, -1.95 210.87, 0 191 M32 223 C11.38 220.77, 2.13 210.96, 0 191 M0 191 C-2.92 159.18, -0.13 128.15, 0 32 M0 191 C-0.35 158.41, -1.41 123.63, 0 32 M0 32 C-0.81 11.63, 12.38 -1.91, 32 0 M0 32 C1.73 9.52, 12.09 0.62, 32 0" stroke="#000000" stroke-width="1" fill="none"></path></g><g transform="translate(2213.380043029785 750.4999999999999) rotate(0 35.619956970214844 12.5)"><text x="35.619956970214844" y="0" font-family="Virgil, Segoe UI Emoji" font-size="20px" fill="#000000" text-anchor="middle" style="white-space: pre;" direction="ltr" dominant-baseline="text-before-edge">reports</text></g><g stroke-linecap="round" transform="translate(2159 806.6666666666664) rotate(0 63.33333333333326 18.33333333333337)"><path d="M9.17 0 M9.17 0 C46.39 1.3, 83.63 -0.24, 117.5 0 M9.17 0 C44.52 -0.17, 79.05 0.39, 117.5 0 M117.5 0 C122.84 -0.27, 125.32 3.55, 126.67 9.17 M117.5 0 C125.73 -0.4, 127.68 1.05, 126.67 9.17 M126.67 9.17 C126.76 16.78, 128.39 22.69, 126.67 27.5 M126.67 9.17 C126.15 13.74, 127.53 18.78, 126.67 27.5 M126.67 27.5 C124.82 32.04, 125.2 36.74, 117.5 36.67 M126.67 27.5 C125.86 33.98, 123.97 37.28, 117.5 36.67 M117.5 36.67 C85.79 36.7, 53.01 35.78, 9.17 36.67 M117.5 36.67 C93.94 36.42, 68.79 36.38, 9.17 36.67 M9.17 36.67 C2.14 37.03, 1.97 31.64, 0 27.5 M9.17 36.67 C1.47 35.82, -0.57 35.04, 0 27.5 M0 27.5 C-1.02 24.06, -1.43 18.82, 0 9.17 M0 27.5 C0.7 21.07, 0.23 14.05, 0 9.17 M0 9.17 C0.48 2.66, 3.64 1.34, 9.17 0 M0 9.17 C0.49 1.78, 3.54 0.82, 9.17 0" stroke="#000000" stroke-width="1" fill="none"></path></g><g transform="translate(2180.6933644612627 812.4999999999998) rotate(0 41.63996887207031 12.5)"><text x="41.63996887207031" y="0" font-family="Virgil, Segoe UI Emoji" font-size="20px" fill="#000000" text-anchor="middle" style="white-space: pre;" direction="ltr" dominant-baseline="text-before-edge">balances</text></g><g stroke-linecap="round" transform="translate(2160.666666666667 859.9999999999997) rotate(0 63.33333333333326 18.33333333333337)"><path d="M9.17 0 M9.17 0 C34.25 2.61, 56.15 2.54, 117.5 0 M9.17 0 C35.74 -1.76, 63.91 -1.31, 117.5 0 M117.5 0 C124.85 -1.04, 127.67 2.73, 126.67 9.17 M117.5 0 C122.45 1.39, 124.99 3.58, 126.67 9.17 M126.67 9.17 C128.12 16.57, 127.19 22.78, 126.67 27.5 M126.67 9.17 C127.24 15.31, 126.12 21.25, 126.67 27.5 M126.67 27.5 C127.38 31.98, 125.27 38.57, 117.5 36.67 M126.67 27.5 C124.9 34.8, 125.05 37.38, 117.5 36.67 M117.5 36.67 C81.22 38.54, 41.26 36.88, 9.17 36.67 M117.5 36.67 C80.12 35.25, 42.72 35.34, 9.17 36.67 M9.17 36.67 C4.48 37.76, -0.17 32.58, 0 27.5 M9.17 36.67 C3.04 38.07, -1.93 34.93, 0 27.5 M0 27.5 C0 21.89, -0.03 17.27, 0 9.17 M0 27.5 C-0.74 21.94, 0.79 15.82, 0 9.17 M0 9.17 C-1.52 4.67, 1.09 -1.29, 9.17 0 M0 9.17 C0.01 3.54, 1.47 1.16, 9.17 0" stroke="#000000" stroke-width="1" fill="none"></path></g><g transform="translate(2174.9900512695312 865.833333333333) rotate(0 49.00994873046875 12.5)"><text x="49.00994873046875" y="0" font-family="Virgil, Segoe UI Emoji" font-size="20px" fill="#000000" text-anchor="middle" style="white-space: pre;" direction="ltr" dominant-baseline="text-before-edge">tx history</text></g><g stroke-linecap="round" transform="translate(1932.3333333333337 733.3333333333334) rotate(0 63.33333333333326 17.5)"><path d="M8.75 0 M8.75 0 C35.77 2.28, 63.33 0.19, 117.92 0 M8.75 0 C43.12 0.45, 75.88 0.37, 117.92 0 M117.92 0 C124.18 -1.23, 125.49 4.34, 126.67 8.75 M117.92 0 C122.62 1.33, 124.54 0.71, 126.67 8.75 M126.67 8.75 C126.39 15.08, 128.28 20.68, 126.67 26.25 M126.67 8.75 C127.19 14.71, 126.12 20.62, 126.67 26.25 M126.67 26.25 C126.87 32.6, 124.48 33.33, 117.92 35 M126.67 26.25 C125.07 33.32, 123.52 33.62, 117.92 35 M117.92 35 C77.72 34.96, 41.89 35.09, 8.75 35 M117.92 35 C91.68 35.02, 67.55 33.64, 8.75 35 M8.75 35 C3.03 36.78, -1.65 32.06, 0 26.25 M8.75 35 C2.66 33.76, -1.57 31.1, 0 26.25 M0 26.25 C0.17 22.33, -1.46 17.72, 0 8.75 M0 26.25 C-0.05 19.2, 0.56 13.82, 0 8.75 M0 8.75 C1.71 4.53, 1.57 0.73, 8.75 0 M0 8.75 C1.61 5.12, 2.89 0.74, 8.75 0" stroke="#000000" stroke-width="1" fill="none"></path></g><g transform="translate(1951.9867045084638 738.3333333333334) rotate(0 43.679962158203125 12.5)"><text x="43.679962158203125" y="0" font-family="Virgil, Segoe UI Emoji" font-size="20px" fill="#000000" text-anchor="middle" style="white-space: pre;" direction="ltr" dominant-baseline="text-before-edge">accounts</text></g><g stroke-linecap="round" transform="translate(1932.3333333333328 777.5) rotate(0 63.33333333333326 17.5)"><path d="M8.75 0 M8.75 0 C34.52 2.09, 62.14 -1.25, 117.92 0 M8.75 0 C46.88 1.87, 84.07 0.96, 117.92 0 M117.92 0 C123.52 -1.08, 125.31 2.06, 126.67 8.75 M117.92 0 C122.1 -0.01, 126.76 3.14, 126.67 8.75 M126.67 8.75 C127.7 12.48, 127.43 18.99, 126.67 26.25 M126.67 8.75 C127.49 13.46, 126.16 17.08, 126.67 26.25 M126.67 26.25 C128.07 34, 123.73 35.65, 117.92 35 M126.67 26.25 C127.03 32.91, 123.43 33.65, 117.92 35 M117.92 35 C92.92 36.37, 69.14 35.56, 8.75 35 M117.92 35 C89.83 33.31, 62.7 33.52, 8.75 35 M8.75 35 C1.44 36.38, 0.77 33.54, 0 26.25 M8.75 35 C2.62 34.53, 1.2 30.83, 0 26.25 M0 26.25 C0.24 22.09, 0.89 16.3, 0 8.75 M0 26.25 C0.12 19.18, 0.38 13.94, 0 8.75 M0 8.75 C0.81 1.15, 3.04 1.83, 8.75 0 M0 8.75 C-0.15 4.85, 4.62 -0.17, 8.75 0" stroke="#000000" stroke-width="1" fill="none"></path></g><g transform="translate(1978.966684977213 782.5) rotate(0 16.699981689453125 12.5)"><text x="16.699981689453125" y="0" font-family="Virgil, Segoe UI Emoji" font-size="20px" fill="#000000" text-anchor="middle" style="white-space: pre;" direction="ltr" dominant-baseline="text-before-edge">txs</text></g><g stroke-linecap="round" transform="translate(1047.833333333333 456.9840182648402) rotate(0 69.5 34.59132420091325)"><path d="M17.3 0 M17.3 0 C51.71 -1.55, 85.1 0.62, 121.7 0 M17.3 0 C43.07 -0.45, 68.94 -1.35, 121.7 0 M121.7 0 C131.81 -0.33, 137.17 7.03, 139 17.3 M121.7 0 C131.61 -1.7, 140.59 6.65, 139 17.3 M139 17.3 C140 29.1, 138.64 44.49, 139 51.89 M139 17.3 C139.65 26.88, 139.67 36.63, 139 51.89 M139 51.89 C137.96 63.76, 131.46 70.11, 121.7 69.18 M139 51.89 C139.75 64.35, 131.2 69.32, 121.7 69.18 M121.7 69.18 C82.3 69.91, 38.17 68.85, 17.3 69.18 M121.7 69.18 C97.22 68.74, 71.47 68.08, 17.3 69.18 M17.3 69.18 C5.43 69.36, -1.34 61.45, 0 51.89 M17.3 69.18 C6.48 68.13, 0.58 65.44, 0 51.89 M0 51.89 C-1.87 40.36, -0.39 27.01, 0 17.3 M0 51.89 C-1.19 39.17, -0.51 26.41, 0 17.3 M0 17.3 C1.37 6.07, 5.73 1.13, 17.3 0 M0 17.3 C0.37 5.54, 6.75 0.65, 17.3 0" stroke="#000000" stroke-width="1" fill="none"></path></g><g transform="translate(1087.7358830769854 483.86003146096874) rotate(0 29.597450256347656 7.715311004784688)"><text x="29.597450256347656" y="0" font-family="Virgil, Segoe UI Emoji" font-size="12.344497607655502px" fill="#000000" text-anchor="middle" style="white-space: pre;" direction="ltr" dominant-baseline="text-before-edge">cat client</text></g><g stroke-linecap="round" transform="translate(569.4999999999999 213.83333333333331) rotate(0 109.5 54.5)"><path d="M27.25 0 M27.25 0 C77.89 0.24, 132.89 1.5, 191.75 0 M27.25 0 C63.31 -1.62, 101.09 -0.86, 191.75 0 M191.75 0 C209.36 -0.13, 218.31 10.26, 219 27.25 M191.75 0 C208.49 1.15, 217.72 9.93, 219 27.25 M219 27.25 C220.86 39.62, 218.79 52.46, 219 81.75 M219 27.25 C218.34 42.81, 220.03 58.2, 219 81.75 M219 81.75 C219.75 100.33, 209.2 109.42, 191.75 109 M219 81.75 C217.78 98.25, 207.75 110.91, 191.75 109 M191.75 109 C147.58 107.05, 97.63 108.59, 27.25 109 M191.75 109 C155.44 111.16, 119.72 109.59, 27.25 109 M27.25 109 C8.77 109, 1.78 101.76, 0 81.75 M27.25 109 C7.16 108.9, 0.59 98.77, 0 81.75 M0 81.75 C-1.59 70.88, 1.48 57.8, 0 27.25 M0 81.75 C0.52 65.29, -0.06 50.66, 0 27.25 M0 27.25 C-1.1 9.41, 8.49 1.98, 27.25 0 M0 27.25 C2.23 11.32, 11.38 -0.63, 27.25 0" stroke="#000000" stroke-width="1" fill="none"></path></g><g transform="translate(606.7700576782225 255.83333333333331) rotate(0 72.22994232177734 12.5)"><text x="72.22994232177734" y="0" font-family="Virgil, Segoe UI Emoji" font-size="20px" fill="#000000" text-anchor="middle" style="white-space: pre;" direction="ltr" dominant-baseline="text-before-edge">Cat Client App</text></g><g stroke-linecap="round"><g transform="translate(979.0532724505324 397.06601677001186) rotate(0 -106.6367875869172 -26.917151996336173)"><path d="M1.16 -0.72 C-34.7 -9.75, -178.6 -46.33, -214.43 -55.34 M0.31 1.51 C-35.22 -7.22, -176.22 -44.1, -212.05 -53.83" stroke="#000000" stroke-width="1" fill="none"></path></g><g transform="translate(979.0532724505324 397.06601677001186) rotate(0 -106.6367875869172 -26.917151996336173)"><path d="M-183.38 -57.56 C-193.07 -55.33, -202.98 -52.94, -211.91 -53.7 M-181.96 -55.91 C-191.36 -56.29, -201.33 -54.83, -212.65 -54.78" stroke="#000000" stroke-width="1" fill="none"></path></g><g transform="translate(979.0532724505324 397.06601677001186) rotate(0 -106.6367875869172 -26.917151996336173)"><path d="M-188.64 -37.72 C-196.24 -42.71, -204.25 -47.48, -211.91 -53.7 M-187.23 -36.08 C-195.01 -42.99, -203.25 -48.03, -212.65 -54.78" stroke="#000000" stroke-width="1" fill="none"></path></g></g><mask></mask><g stroke-linecap="round"><g transform="translate(801.1912371913486 326.08771176924574) rotate(0 91.28404384190137 23.832834972986902)"><path d="M0.16 0.38 C30.91 8.39, 153.49 39.09, 183.79 47.13 M-1.22 -0.46 C29.52 7.74, 152.4 40.3, 183.33 48.13" stroke="#000000" stroke-width="1" fill="none"></path></g><g transform="translate(801.1912371913486 326.08771176924574) rotate(0 91.28404384190137 23.832834972986902)"><path d="M154.1 52.51 C158.89 48.67, 168.49 49.15, 183.62 47.18 M152.9 50.93 C160.86 51.37, 169.85 49.57, 183.58 48.53" stroke="#000000" stroke-width="1" fill="none"></path></g><g transform="translate(801.1912371913486 326.08771176924574) rotate(0 91.28404384190137 23.832834972986902)"><path d="M159.26 32.65 C162.68 33.55, 171.05 38.77, 183.62 47.18 M158.06 31.07 C164.69 36.87, 172.28 40.46, 183.58 48.53" stroke="#000000" stroke-width="1" fill="none"></path></g></g><mask></mask><g stroke-linecap="round" transform="translate(1009 366.66666666666663) rotate(0 206.66666666666663 138.33333333333331)"><path d="M32 0 M32 0 C132.52 2.78, 232.03 2.83, 381.33 0 M32 0 C155.65 1.23, 279.77 1.19, 381.33 0 M381.33 0 C403.9 1.64, 411.91 12, 413.33 32 M381.33 0 C402.63 0.42, 412.93 8.81, 413.33 32 M413.33 32 C412.29 87.73, 414.26 141.44, 413.33 244.67 M413.33 32 C415.81 99.67, 415.63 167.01, 413.33 244.67 M413.33 244.67 C413.17 267.25, 402.84 278.24, 381.33 276.67 M413.33 244.67 C413.87 266.37, 401.96 278.87, 381.33 276.67 M381.33 276.67 C268.75 276.68, 154.75 277.37, 32 276.67 M381.33 276.67 C270.74 275.31, 160.67 274.57, 32 276.67 M32 276.67 C9.96 277.82, 1.87 266.21, 0 244.67 M32 276.67 C10.4 275.53, 0.73 264.04, 0 244.67 M0 244.67 C-0.43 196.98, 0.07 149.3, 0 32 M0 244.67 C1.92 168.88, 2.31 91.08, 0 32 M0 32 C1.33 9.08, 9.87 -0.29, 32 0 M0 32 C0.89 9.33, 9.64 0.41, 32 0" stroke="#000000" stroke-width="1" fill="none"></path></g><g transform="translate(1100.6666666666665 411.6666666666665) rotate(0 27.219985961914062 12.5)"><text x="0" y="0" font-family="Virgil, Segoe UI Emoji" font-size="20px" fill="#000000" text-anchor="start" style="white-space: pre;" direction="ltr" dominant-baseline="text-before-edge">CORE</text></g><g stroke-linecap="round"><g transform="translate(1163.9999999999998 171.66666666666669) rotate(0 -0.2726415855000255 94.88763528331646)"><path d="M0.86 -1.17 C0.6 30.5, -0.32 157.57, -0.87 189.61 M-0.15 0.83 C-0.55 32.7, -1.44 159.54, -1.4 190.95" stroke="#000000" stroke-width="1" fill="none"></path></g><g transform="translate(1163.9999999999998 171.66666666666669) rotate(0 -0.2726415855000255 94.88763528331646)"><path d="M-13.51 164.05 C-8.7 171.39, -2.67 184.19, -3.17 189.95 M-12.17 161.85 C-9.09 171.91, -4.41 181.58, -1.38 190.7" stroke="#000000" stroke-width="1" fill="none"></path></g><g transform="translate(1163.9999999999998 171.66666666666669) rotate(0 -0.2726415855000255 94.88763528331646)"><path d="M7.01 164.12 C4.56 171.58, 3.32 184.36, -3.17 189.95 M8.35 161.93 C4.85 171.9, 2.95 181.55, -1.38 190.7" stroke="#000000" stroke-width="1" fill="none"></path></g></g><mask></mask><g stroke-linecap="round"><g transform="translate(1195.6666666666665 346.66666666666663) rotate(0 1.6876296282853787 -81.50755963226158)"><path d="M-0.99 -0.2 C-0.71 -27.18, 1.45 -135.97, 2.23 -162.81 M0.69 -1.35 C1.27 -28.15, 3.97 -134.87, 4.37 -161.88" stroke="#000000" stroke-width="1" fill="none"></path></g><g transform="translate(1195.6666666666665 346.66666666666663) rotate(0 1.6876296282853787 -81.50755963226158)"><path d="M13.71 -135.32 C9 -142.82, 8.22 -154.6, 5.57 -163.16 M14.3 -132.53 C10.16 -141.48, 7.83 -149.9, 4.63 -162.44" stroke="#000000" stroke-width="1" fill="none"></path></g><g transform="translate(1195.6666666666665 346.66666666666663) rotate(0 1.6876296282853787 -81.50755963226158)"><path d="M-6.81 -135.74 C-4.42 -142.93, 1.9 -154.56, 5.57 -163.16 M-6.22 -132.95 C-4.24 -141.68, -0.46 -149.97, 4.63 -162.44" stroke="#000000" stroke-width="1" fill="none"></path></g></g><mask></mask><g mask="url(#mask-nzwIdwEvmLUVC9T8ALqat)" stroke-linecap="round"><g transform="translate(1441.817008738215 483.04231730682153) rotate(0 304.8811502196763 -47.99020569602364)"><path d="M-0.61 0.89 C100.82 -15.04, 506.4 -79.1, 608.11 -95.22 M1.28 0.32 C103.12 -15.98, 509.05 -81.09, 610.37 -96.87" stroke="#5f3dc4" stroke-width="1" fill="none"></path></g><g transform="translate(1441.817008738215 483.04231730682153) rotate(0 304.8811502196763 -47.99020569602364)"><path d="M585.62 -83.75 C592.42 -84.88, 598.26 -91.17, 612.02 -97.34 M584.17 -82.52 C593.17 -87.41, 599.64 -91.28, 611.11 -96.35" stroke="#5f3dc4" stroke-width="1" fill="none"></path></g><g transform="translate(1441.817008738215 483.04231730682153) rotate(0 304.8811502196763 -47.99020569602364)"><path d="M582.41 -104.02 C590.12 -99.83, 596.79 -100.82, 612.02 -97.34 M580.96 -102.79 C590.95 -101.46, 598.41 -99.11, 611.11 -96.35" stroke="#5f3dc4" stroke-width="1" fill="none"></path></g></g><mask id="mask-nzwIdwEvmLUVC9T8ALqat"><rect x="0" y="0" fill="#fff" width="2150.777411485623" height="679.1462165573338"></rect><rect x="1694.1872552779346" y="422.49036768156543" fill="#000" width="104.21990966796875" height="25" opacity="1"></rect></mask><g transform="translate(1694.1872552779346 422.49036768156543) rotate(0 52.5109036799567 12.561743929232463)"><text x="52.109954833984375" y="0" font-family="Virgil, Segoe UI Emoji" font-size="20px" fill="#5f3dc4" text-anchor="middle" style="white-space: pre;" direction="ltr" dominant-baseline="text-before-edge">all_events</text></g><g mask="url(#mask-3_ujpqbdC4Xj8QBGFANsC)" stroke-linecap="round"><g transform="translate(2215.78551644699 641.3235390293569) rotate(0 -18.871071377359385 -121.29891620754908)"><path d="M1.01 0.66 C-5.47 -39.44, -31.25 -201.16, -37.77 -241.7 M0.08 -0.04 C-6.66 -40.35, -32.22 -203.07, -38.75 -243.26" stroke="#5f3dc4" stroke-width="1" fill="none"></path></g><g transform="translate(2215.78551644699 641.3235390293569) rotate(0 -18.871071377359385 -121.29891620754908)"><path d="M-23.08 -217.14 C-27.82 -227.8, -34.95 -237.6, -38.52 -241.95 M-24.46 -217.29 C-28.23 -225.74, -34.14 -235.01, -38.67 -243.64" stroke="#5f3dc4" stroke-width="1" fill="none"></path></g><g transform="translate(2215.78551644699 641.3235390293569) rotate(0 -18.871071377359385 -121.29891620754908)"><path d="M-43.34 -213.9 C-40.16 -226, -39.39 -237.06, -38.52 -241.95 M-44.72 -214.06 C-41.63 -223.77, -40.69 -234.14, -38.67 -243.64" stroke="#5f3dc4" stroke-width="1" fill="none"></path></g></g><mask id="mask-3_ujpqbdC4Xj8QBGFANsC"><rect x="0" y="0" fill="#fff" width="2353.491780366249" height="984.0941049465357"></rect><rect x="2144.8224296533767" y="507.43825607076747" fill="#000" width="104.21990966796875" height="25" opacity="1"></rect></mask><g transform="translate(2144.8224296533763 507.43825607076747) rotate(0 52.0920154162543 12.58636675104033)"><text x="52.109954833984375" y="0" font-family="Virgil, Segoe UI Emoji" font-size="20px" fill="#5f3dc4" text-anchor="middle" style="white-space: pre;" direction="ltr" dominant-baseline="text-before-edge">all_events</text></g><g stroke-linecap="round" transform="translate(1001.3333333333335 1124.1666666666667) rotate(0 111 77.5)"><path d="M32 0 M32 0 C82.71 -0.52, 134.51 -0.48, 190 0 M32 0 C74.23 -0.08, 117.15 0.45, 190 0 M190 0 C210.95 -2, 220.88 10.31, 222 32 M190 0 C212.19 0.25, 223.91 10.89, 222 32 M222 32 C220.91 54.75, 223.23 79.25, 222 123 M222 32 C223.31 60.71, 222.95 90.99, 222 123 M222 123 C222.93 143.39, 212.96 154.61, 190 155 M222 123 C220.73 145.62, 210.88 153.66, 190 155 M190 155 C130.62 157.38, 71.66 157.34, 32 155 M190 155 C131.65 154.28, 73.26 153.29, 32 155 M32 155 C12 156.09, -0.61 145.3, 0 123 M32 155 C12.34 155.08, 1.56 144.27, 0 123 M0 123 C-0.04 88.64, -1.15 55.75, 0 32 M0 123 C-1.67 102.58, -1.05 84.21, 0 32 M0 32 C0.1 11.26, 9.94 -0.39, 32 0 M0 32 C1.01 9.39, 8.58 2.04, 32 0" stroke="#000000" stroke-width="1" fill="none"></path></g><g transform="translate(1028.6034138997397 1129.1666666666667) rotate(0 83.72991943359375 12.5)"><text x="83.72991943359375" y="0" font-family="Virgil, Segoe UI Emoji" font-size="20px" fill="#000000" text-anchor="middle" style="white-space: pre;" direction="ltr" dominant-baseline="text-before-edge">Consumables tool</text></g><g mask="url(#mask-iiVpMRBxKZeDjj68Xc0w8)" stroke-linecap="round"><g transform="translate(1143.9763420066647 652.5344043357065) rotate(0 -24.152501199221035 227.50492138592514)"><path d="M0.41 0.88 C-7.56 76.52, -40.55 377.95, -48.72 453.52 M-0.83 0.3 C-8.35 76.11, -38.92 378.81, -46.45 454.71" stroke="#5f3dc4" stroke-width="1" fill="none"></path></g><g transform="translate(1143.9763420066647 652.5344043357065) rotate(0 -24.152501199221035 227.50492138592514)"><path d="M-52.38 424.21 C-53.35 430.98, -50.4 439.64, -45.42 455.48 M-53.63 425.21 C-50.75 435.97, -47.96 445.77, -46.48 454.18" stroke="#5f3dc4" stroke-width="1" fill="none"></path></g><g transform="translate(1143.9763420066647 652.5344043357065) rotate(0 -24.152501199221035 227.50492138592514)"><path d="M-31.96 426.25 C-37.53 432.63, -39.19 440.83, -45.42 455.48 M-33.21 427.25 C-37.51 437.31, -41.9 446.39, -46.48 454.18" stroke="#5f3dc4" stroke-width="1" fill="none"></path></g></g><mask id="mask-iiVpMRBxKZeDjj68Xc0w8"><rect x="0" y="0" fill="#fff" width="1291.836162528686" height="1206.7083197949032"></rect><rect x="1049.1864997998532" y="854.621362065305" fill="#000" width="141.71986389160156" height="50" opacity="1"></rect></mask><g transform="translate(1049.1864997998532 854.6213620653051) rotate(0 70.63734100759035 25.417963656326748)"><text x="70.85993194580078" y="0" font-family="Virgil, Segoe UI Emoji" font-size="20px" fill="#5f3dc4" text-anchor="middle" style="white-space: pre;" direction="ltr" dominant-baseline="text-before-edge">help requests </text><text x="70.85993194580078" y="25" font-family="Virgil, Segoe UI Emoji" font-size="20px" fill="#5f3dc4" text-anchor="middle" style="white-space: pre;" direction="ltr" dominant-baseline="text-before-edge">(expanded)</text></g><g stroke-linecap="round" transform="translate(1009 1528.3333333333335) rotate(0 98.33333333333337 23.33333333333337)"><path d="M11.67 0 M11.67 0 C75.84 1.3, 138.76 1.05, 185 0 M11.67 0 C54.99 -0.28, 97.66 -0.86, 185 0 M185 0 C192.22 -1.07, 196.92 5.33, 196.67 11.67 M185 0 C192.53 0.02, 196.27 5.92, 196.67 11.67 M196.67 11.67 C194.9 16.54, 196.08 23.83, 196.67 35 M196.67 11.67 C197.03 21.63, 197.6 30.17, 196.67 35 M196.67 35 C196.59 43.37, 192.57 47.3, 185 46.67 M196.67 35 C194.49 41.53, 193.09 48.42, 185 46.67 M185 46.67 C134.88 46.67, 88.59 48.66, 11.67 46.67 M185 46.67 C133.46 48.47, 81.96 48.67, 11.67 46.67 M11.67 46.67 C2.27 48.35, -0.38 44.02, 0 35 M11.67 46.67 C1.91 46.93, -1.05 42.96, 0 35 M0 35 C-1.22 24.95, -0.12 17.38, 0 11.67 M0 35 C-0.59 27.85, 0.11 21.57, 0 11.67 M0 11.67 C1.29 2.73, 2.5 0.26, 11.67 0 M0 11.67 C-2.17 2.45, 3.11 -0.22, 11.67 0" stroke="#000000" stroke-width="1" fill="none"></path></g><g transform="translate(1073.2733739217124 1539.1666666666665) rotate(0 34.059959411621094 12.5)"><text x="34.059959411621094" y="0" font-family="Virgil, Segoe UI Emoji" font-size="20px" fill="#000000" text-anchor="middle" style="white-space: pre;" direction="ltr" dominant-baseline="text-before-edge">cookies</text></g><g mask="url(#mask-5YCWaFBuHLKFp73mnqu-u)" stroke-linecap="round"><g transform="translate(1102.0851452067404 1295) rotate(0 -6.071926265527452 112.53749871625564)"><path d="M-0.13 0.38 C-2.12 37.71, -10.25 186.76, -12.02 224.35 M-1.65 -0.47 C-3.29 36.98, -8.28 188.12, -9.9 225.54" stroke="#000000" stroke-width="1" fill="none"></path></g><g transform="translate(1102.0851452067404 1295) rotate(0 -6.071926265527452 112.53749871625564)"><path d="M-18.47 195.09 C-17.38 205.72, -12.05 213.49, -11 226.3 M-18.43 196.97 C-17.9 203.94, -15.01 209.88, -9.52 226.22" stroke="#000000" stroke-width="1" fill="none"></path></g><g transform="translate(1102.0851452067404 1295) rotate(0 -6.071926265527452 112.53749871625564)"><path d="M2.04 195.86 C-2.94 206.24, -3.68 213.79, -11 226.3 M2.08 197.74 C-1.85 204.6, -3.43 210.37, -9.52 226.22" stroke="#000000" stroke-width="1" fill="none"></path></g></g><mask id="mask-5YCWaFBuHLKFp73mnqu-u"><rect x="0" y="0" fill="#fff" width="1212.9658734327854" height="1620"></rect><rect x="1020.9348506737962" y="1395.0000000000002" fill="#000" width="151.41986083984375" height="25" opacity="1"></rect></mask><g transform="translate(1020.9348506737962 1395.0000000000002) rotate(0 75.07836826741692 12.53749871625564)"><text x="75.70993041992188" y="0" font-family="Virgil, Segoe UI Emoji" font-size="20px" fill="#000000" text-anchor="middle" style="white-space: pre;" direction="ltr" dominant-baseline="text-before-edge">call for cookies</text></g><g stroke-linecap="round" transform="translate(1118.8333333333335 1285.833333333333) rotate(0 49.5 48.5)"><path d="M57.99 0.26 C65.87 0.95, 74.55 6.16, 80.93 11.33 C87.31 16.49, 93.52 23.66, 96.27 31.27 C99.02 38.88, 98.96 48.85, 97.45 56.98 C95.93 65.11, 92.11 73.82, 87.18 80.04 C82.25 86.25, 75.55 91.42, 67.87 94.27 C60.19 97.13, 49.34 98.44, 41.1 97.16 C32.85 95.88, 24.63 91.98, 18.4 86.61 C12.16 81.23, 6.78 72.39, 3.67 64.92 C0.57 57.45, -1.56 49.52, -0.23 41.8 C1.1 34.09, 6.2 25.2, 11.64 18.64 C17.07 12.09, 24.38 5.46, 32.39 2.47 C40.41 -0.51, 54.51 0.66, 59.74 0.73 C64.96 0.8, 63.78 1.97, 63.73 2.9 M44.02 -0.53 C51.94 -2.14, 63.91 -0.14, 71.53 3.17 C79.16 6.49, 85.25 12.53, 89.77 19.37 C94.28 26.21, 97.78 35.92, 98.63 44.21 C99.47 52.49, 98.24 61.66, 94.83 69.07 C91.42 76.48, 85 83.99, 78.17 88.68 C71.34 93.38, 62.23 96.49, 53.85 97.24 C45.48 97.99, 35.53 96.52, 27.92 93.18 C20.3 89.83, 12.99 83.99, 8.15 77.16 C3.32 70.32, -0.61 60.24, -1.09 52.16 C-1.56 44.08, 1.75 35.97, 5.3 28.69 C8.85 21.41, 13.55 13.09, 20.2 8.48 C26.84 3.87, 41.01 2.22, 45.15 1.06 C49.29 -0.11, 44.95 0.67, 45.05 1.5" stroke="#000000" stroke-width="1" fill="none"></path></g><g transform="translate(1146.2515687217283 1309.5386544457856) rotate(0 22.079978942871094 25)"><text x="22.079978942871094" y="0" font-family="Virgil, Segoe UI Emoji" font-size="20px" fill="#000000" text-anchor="middle" style="white-space: pre;" direction="ltr" dominant-baseline="text-before-edge">Cons</text><text x="22.079978942871094" y="25" font-family="Virgil, Segoe UI Emoji" font-size="20px" fill="#000000" text-anchor="middle" style="white-space: pre;" direction="ltr" dominant-baseline="text-before-edge">Mngr</text></g><g transform="translate(1245.666666666667 1235) rotate(0 223.8289337158203 49.16666666666663)"><text x="0" y="0" font-family="Virgil, Segoe UI Emoji" font-size="19.66666666666665px" fill="#000000" text-anchor="start" style="white-space: pre;" direction="ltr" dominant-baseline="text-before-edge">separate people who do the job</text><text x="0" y="24.583333333333314" font-family="Virgil, Segoe UI Emoji" font-size="19.66666666666665px" fill="#000000" text-anchor="start" style="white-space: pre;" direction="ltr" dominant-baseline="text-before-edge">limited functions</text><text x="0" y="49.16666666666663" font-family="Virgil, Segoe UI Emoji" font-size="19.66666666666665px" fill="#000000" text-anchor="start" style="white-space: pre;" direction="ltr" dominant-baseline="text-before-edge">might be part of "HELP REQUEST ADMIN" (?)</text><text x="0" y="73.74999999999994" font-family="Virgil, Segoe UI Emoji" font-size="19.66666666666665px" fill="#000000" text-anchor="start" style="white-space: pre;" direction="ltr" dominant-baseline="text-before-edge"></text></g><g mask="url(#mask-arsSwTrnpdOb9NtQYhOca)" stroke-linecap="round"><g transform="translate(1215.7703313819754 1145.9576216135956) rotate(0 671.4036232800419 -253.23540661032996)"><path d="M1.13 -1.02 C217.32 38.32, 1121.05 364.83, 1296.42 236.08 C1471.78 107.33, 1093.52 -605.63, 1053.3 -773.52 M0.26 1.06 C216.34 40.5, 1119.41 365.97, 1295.33 237 C1471.26 108.02, 1096.31 -604.42, 1055.81 -772.79" stroke="#5f3dc4" stroke-width="1" fill="none"></path></g><g transform="translate(1215.7703313819754 1145.9576216135956) rotate(0 671.4036232800419 -253.23540661032996)"><path d="M1073.79 -750.59 C1068.86 -756.55, 1064.32 -758.83, 1057.72 -773.83 M1074.78 -750.41 C1069.61 -756.95, 1062.27 -765.32, 1054.89 -772.39" stroke="#5f3dc4" stroke-width="1" fill="none"></path></g><g transform="translate(1215.7703313819754 1145.9576216135956) rotate(0 671.4036232800419 -253.23540661032996)"><path d="M1054.63 -743.23 C1054.22 -751.12, 1054.21 -755.14, 1057.72 -773.83 M1055.62 -743.06 C1056.69 -752.06, 1055.61 -762.83, 1054.89 -772.39" stroke="#5f3dc4" stroke-width="1" fill="none"></path></g></g><mask id="mask-arsSwTrnpdOb9NtQYhOca"><rect x="0" y="0" fill="#fff" width="2612.4521831136576" height="2255.6242882802626"></rect><rect x="2460.3422282796737" y="1370.7196397788446" fill="#000" width="104.21990966796875" height="25" opacity="1"></rect></mask><g transform="translate(2460.3422282796732 1370.7196397788443) rotate(0 -573.1682736176559 -477.9974247755789)"><text x="52.109954833984375" y="0" font-family="Virgil, Segoe UI Emoji" font-size="20px" fill="#5f3dc4" text-anchor="middle" style="white-space: pre;" direction="ltr" dominant-baseline="text-before-edge">all_events</text></g><g mask="url(#mask-67acC-jYjrjfPhA6bRqIC)" stroke-linecap="round"><g transform="translate(1834.5223635072882 1496.444653337222) rotate(0 522.276063786278 -553.1518976690838)"><path d="M-1.12 0.83 C172.09 -39.63, 967.83 -57.57, 1039.55 -241.91 C1111.28 -426.26, 531.09 -961.3, 429.2 -1105.25 M0.49 0.23 C173.53 -40.15, 967.3 -56.06, 1038.65 -240.62 C1109.99 -425.18, 530.32 -962.6, 428.56 -1107.14" stroke="#5f3dc4" stroke-width="1" fill="none"></path></g><g transform="translate(1834.5223635072882 1496.444653337222) rotate(0 522.276063786278 -553.1518976690838)"><path d="M456.28 -1092.63 C445.55 -1097.22, 439.3 -1103.43, 429.46 -1106.53 M454.56 -1092 C445.83 -1098.06, 435.25 -1103.09, 427.89 -1106.85" stroke="#5f3dc4" stroke-width="1" fill="none"></path></g><g transform="translate(1834.5223635072882 1496.444653337222) rotate(0 522.276063786278 -553.1518976690838)"><path d="M440.87 -1079.07 C435 -1087.88, 433.7 -1098.45, 429.46 -1106.53 M439.16 -1078.44 C436.09 -1089.63, 431.18 -1099.65, 427.89 -1106.85" stroke="#5f3dc4" stroke-width="1" fill="none"></path></g></g><mask id="mask-67acC-jYjrjfPhA6bRqIC"><rect x="0" y="0" fill="#fff" width="2973.9999999999995" height="2702.548552587734"></rect><rect x="2821.8900451660147" y="1242.4999999999995" fill="#000" width="104.21990966796875" height="25" opacity="1"></rect></mask><g transform="translate(2821.890045166015 1242.5) rotate(0 -465.091617872449 -299.2072443318616)"><text x="52.109954833984375" y="0" font-family="Virgil, Segoe UI Emoji" font-size="20px" fill="#5f3dc4" text-anchor="middle" style="white-space: pre;" direction="ltr" dominant-baseline="text-before-edge">all_events</text></g><g stroke-linecap="round" transform="translate(1560.6666666666665 26.66666666666663) rotate(0 157.4999999999999 53.33333333333337)"><path d="M26.67 0 M26.67 0 C93.32 -0.17, 160.41 -0.76, 288.33 0 M26.67 0 C99.24 0.86, 173.66 1.37, 288.33 0 M288.33 0 C307.84 -1.68, 313.72 7.19, 315 26.67 M288.33 0 C306.16 -0.3, 315.74 8.55, 315 26.67 M315 26.67 C313.82 38.1, 315.73 51.1, 315 80 M315 26.67 C313.91 42.84, 314.75 58.4, 315 80 M315 80 C314.09 97.46, 307.56 105.55, 288.33 106.67 M315 80 C316.11 98.21, 307.14 106.29, 288.33 106.67 M288.33 106.67 C185.89 109.18, 83.71 107.77, 26.67 106.67 M288.33 106.67 C215.75 108.97, 145.06 109.45, 26.67 106.67 M26.67 106.67 C8.24 108.56, 1.08 97.64, 0 80 M26.67 106.67 C10.7 104.88, -0.15 97.88, 0 80 M0 80 C0.81 66.23, 0.49 55.33, 0 26.67 M0 80 C0.08 59.97, -0.07 40.37, 0 26.67 M0 26.67 C0.2 9, 9.12 0.23, 26.67 0 M0 26.67 C-0.12 6.88, 10.64 0.11, 26.67 0" stroke="#000000" stroke-width="1" fill="none"></path></g><g transform="translate(1651.5067164103189 67.5) rotate(0 66.65995025634766 12.5)"><text x="66.65995025634766" y="0" font-family="Virgil, Segoe UI Emoji" font-size="20px" fill="#000000" text-anchor="middle" style="white-space: pre;" direction="ltr" dominant-baseline="text-before-edge">Matching algo</text></g><g mask="url(#mask-R-A_G4Kb0qfDvnzsQZNq0)" stroke-linecap="round"><g transform="translate(1289.6650649838634 341.6848450548251) rotate(0 129.5722492448046 -124.0610920614798)"><path d="M0.86 0.33 C43.96 -40.96, 216.41 -207.23, 259.29 -248.46 M-0.15 -0.54 C42.82 -41.62, 215.95 -205.81, 258.85 -247.2" stroke="#5f3dc4" stroke-width="1" fill="none"></path></g><g transform="translate(1289.6650649838634 341.6848450548251) rotate(0 129.5722492448046 -124.0610920614798)"><path d="M246.12 -218.68 C249.57 -230.38, 256.7 -240.84, 259.82 -246.82 M245.13 -219.62 C250.43 -229.03, 255.42 -239.19, 258.61 -246.56" stroke="#5f3dc4" stroke-width="1" fill="none"></path></g><g transform="translate(1289.6650649838634 341.6848450548251) rotate(0 129.5722492448046 -124.0610920614798)"><path d="M231.94 -233.52 C240.41 -239.99, 252.63 -245.12, 259.82 -246.82 M230.95 -234.46 C241.11 -238.89, 250.99 -243.92, 258.61 -246.56" stroke="#5f3dc4" stroke-width="1" fill="none"></path></g></g><mask id="mask-R-A_G4Kb0qfDvnzsQZNq0"><rect x="0" y="0" fill="#fff" width="1647.9795247879626" height="689.5949926337001"></rect><rect x="1347.9623629401121" y="192.7297712653875" fill="#000" width="141.71986389160156" height="50" opacity="1"></rect></mask><g transform="translate(1347.9623629401124 192.72977126538748) rotate(0 71.27495128855577 24.893981727957765)"><text x="70.85993194580078" y="0" font-family="Virgil, Segoe UI Emoji" font-size="20px" fill="#5f3dc4" text-anchor="middle" style="white-space: pre;" direction="ltr" dominant-baseline="text-before-edge">help requests </text><text x="70.85993194580078" y="25" font-family="Virgil, Segoe UI Emoji" font-size="20px" fill="#5f3dc4" text-anchor="middle" style="white-space: pre;" direction="ltr" dominant-baseline="text-before-edge">(expanded)</text></g><g mask="url(#mask-T3iei9y4Lnq9vBeRpxeHF)" stroke-linecap="round"><g transform="translate(1677.3333333333335 146.66666666666686) rotate(0 -122.52395560539804 112.78897183641321)"><path d="M0.34 -1.05 C-40.37 36.48, -203.85 187.3, -244.63 225.06 M-0.94 1.01 C-41.75 38.76, -204.74 189.56, -245.39 226.63" stroke="#000000" stroke-width="1" fill="none"></path></g><g transform="translate(1677.3333333333335 146.66666666666686) rotate(0 -122.52395560539804 112.78897183641321)"><path d="M-233.34 200.61 C-235.23 208.26, -238.22 214.65, -246.09 227.65 M-230.92 199.2 C-234.8 206.08, -237.11 210.86, -246.36 226.16" stroke="#000000" stroke-width="1" fill="none"></path></g><g transform="translate(1677.3333333333335 146.66666666666686) rotate(0 -122.52395560539804 112.78897183641321)"><path d="M-219.45 215.72 C-225.07 219.33, -231.8 221.65, -246.09 227.65 M-217.03 214.3 C-223.67 218.06, -228.89 219.67, -246.36 226.16" stroke="#000000" stroke-width="1" fill="none"></path></g></g><mask id="mask-T3iei9y4Lnq9vBeRpxeHF"><rect x="0" y="0" fill="#fff" width="2022.3333333333337" height="471.66666666666674"></rect><rect x="1455.3134282430015" y="246.6666666666668" fill="#000" width="199.03981018066406" height="25" opacity="1"></rect></mask><g transform="translate(1455.3134282430012 246.6666666666668) rotate(0 99.4959494849341 12.788971836413268)"><text x="99.51990509033203" y="0" font-family="Virgil, Segoe UI Emoji" font-size="20px" fill="#000000" text-anchor="middle" style="white-space: pre;" direction="ltr" dominant-baseline="text-before-edge">update help request</text></g><g transform="translate(1885.6666666666665 10) rotate(0 140.60987854003906 37.5)"><text x="0" y="0" font-family="Virgil, Segoe UI Emoji" font-size="20px" fill="#000000" text-anchor="start" style="white-space: pre;" direction="ltr" dominant-baseline="text-before-edge">diff tech stack and/or devs</text><text x="0" y="25" font-family="Virgil, Segoe UI Emoji" font-size="20px" fill="#000000" text-anchor="start" style="white-space: pre;" direction="ltr" dominant-baseline="text-before-edge">quickly/independently changing</text><text x="0" y="50" font-family="Virgil, Segoe UI Emoji" font-size="20px" fill="#000000" text-anchor="start" style="white-space: pre;" direction="ltr" dominant-baseline="text-before-edge">secret (?)</text></g><g stroke-linecap="round" transform="translate(2193.9999999999995 221.66666666666669) rotate(0 86.66666666666674 35.83333333333334)"><path d="M17.92 0 M17.92 0 C73.44 -2.03, 125.94 -1.54, 155.42 0 M17.92 0 C45.41 -0.48, 74.84 -0.2, 155.42 0 M155.42 0 C167.39 0.32, 172.45 6.83, 173.33 17.92 M155.42 0 C167.28 -1.18, 172.8 7.52, 173.33 17.92 M173.33 17.92 C171.69 27.18, 174.09 32.58, 173.33 53.75 M173.33 17.92 C172.95 27.96, 174.12 39.84, 173.33 53.75 M173.33 53.75 C171.95 65.04, 168.38 71.66, 155.42 71.67 M173.33 53.75 C174.12 67.53, 167.91 71.42, 155.42 71.67 M155.42 71.67 C107.25 70.59, 58.19 73.65, 17.92 71.67 M155.42 71.67 C111.38 72.76, 67.23 71.55, 17.92 71.67 M17.92 71.67 C7.67 73.24, 1.65 65.1, 0 53.75 M17.92 71.67 C5.6 69.98, -0.09 65.78, 0 53.75 M0 53.75 C-1.61 43.21, -1.18 37.26, 0 17.92 M0 53.75 C-0.63 39.02, 0.19 25.15, 0 17.92 M0 17.92 C1.04 5.31, 5.18 1.74, 17.92 0 M0 17.92 C0.02 6.3, 6.45 -2.26, 17.92 0" stroke="#000000" stroke-width="1" fill="none"></path></g><g transform="translate(2256.1066843668614 245) rotate(0 24.559982299804688 12.5)"><text x="24.559982299804688" y="0" font-family="Virgil, Segoe UI Emoji" font-size="20px" fill="#000000" text-anchor="middle" style="white-space: pre;" direction="ltr" dominant-baseline="text-before-edge">Email</text></g><g mask="url(#mask-G2iXX0ltcLIpxh-InYzr8)" stroke-linecap="round"><g transform="translate(1437.4521831136572 459.65687236269014) rotate(0 304.06461553693583 -48.39587626064066)"><path d="M-0.88 -0.04 C100.68 -16.14, 507.27 -80.85, 609.01 -96.75 M0.86 -1.11 C102.3 -17.04, 506.71 -79.49, 608.08 -95.55" stroke="#5f3dc4" stroke-width="1" fill="none"></path></g><g transform="translate(1437.4521831136572 459.65687236269014) rotate(0 304.06461553693583 -48.39587626064066)"><path d="M581.74 -80.98 C587.86 -83.8, 597.14 -90.13, 606.37 -96.55 M582.03 -81.9 C590.4 -86.12, 599.98 -90.78, 607.75 -95.95" stroke="#5f3dc4" stroke-width="1" fill="none"></path></g><g transform="translate(1437.4521831136572 459.65687236269014) rotate(0 304.06461553693583 -48.39587626064066)"><path d="M578.57 -101.26 C585.52 -98.58, 595.65 -99.43, 606.37 -96.55 M578.87 -102.17 C588.56 -99.11, 599.27 -96.5, 607.75 -95.95" stroke="#5f3dc4" stroke-width="1" fill="none"></path></g></g><mask id="mask-G2iXX0ltcLIpxh-InYzr8"><rect x="0" y="0" fill="#fff" width="2146.412585861065" height="655.7607716132023"></rect><rect x="1683.3424339258377" y="399.10492273743404" fill="#000" width="117.17990112304688" height="25" opacity="1"></rect></mask><g transform="translate(1683.3424339258374 399.10492273743404) rotate(0 58.17436472475521 12.156073364615438)"><text x="58.58995056152344" y="0" font-family="Virgil, Segoe UI Emoji" font-size="20px" fill="#5f3dc4" text-anchor="middle" style="white-space: pre;" direction="ltr" dominant-baseline="text-before-edge">cat (emails)</text></g><g stroke-linecap="round" transform="translate(2153.833333333333 1305.833333333333) rotate(0 58 47.5)"><path d="M45.68 1.68 C54.31 -0.81, 65.64 0.11, 74.69 2.29 C83.73 4.46, 93.16 9.05, 99.92 14.73 C106.68 20.4, 112.9 28.49, 115.25 36.33 C117.6 44.17, 116.92 54.01, 114.02 61.77 C111.11 69.52, 105.12 77.39, 97.82 82.87 C90.52 88.35, 79.63 92.95, 70.19 94.64 C60.76 96.33, 50.35 95.46, 41.2 93 C32.06 90.54, 22.02 85.82, 15.31 79.89 C8.6 73.96, 3.09 65.19, 0.94 57.41 C-1.2 49.63, -0.53 40.59, 2.45 33.21 C5.43 25.82, 10.26 18.55, 18.82 13.1 C27.37 7.66, 46.6 2.45, 53.77 0.54 C60.94 -1.37, 61.94 0.92, 61.84 1.66 M45.79 0.53 C54.58 -1.68, 67.37 -1.17, 76.93 1.37 C86.5 3.91, 96.93 9.76, 103.17 15.77 C109.41 21.78, 112.88 29.37, 114.36 37.42 C115.85 45.48, 115.16 56.36, 112.06 64.08 C108.96 71.81, 102.91 78.76, 95.78 83.78 C88.64 88.8, 78.62 92.86, 69.25 94.2 C59.88 95.54, 49.01 94.47, 39.57 91.79 C30.14 89.12, 19.17 84.03, 12.64 78.15 C6.1 72.26, 1.75 63.96, 0.36 56.49 C-1.03 49.01, 0.84 40.99, 4.28 33.31 C7.72 25.63, 14.09 15.84, 20.99 10.41 C27.88 4.99, 41.33 2.21, 45.65 0.78 C49.97 -0.65, 46.34 1.02, 46.91 1.85" stroke="#000000" stroke-width="1" fill="none"></path></g><g transform="translate(2183.0511510108413 1340.7457612269723) rotate(0 28.769989013671875 12.5)"><text x="28.769989013671875" y="0" font-family="Virgil, Segoe UI Emoji" font-size="20px" fill="#000000" text-anchor="middle" style="white-space: pre;" direction="ltr" dominant-baseline="text-before-edge">MNGR</text></g><g mask="url(#mask-OYLxgtCPx678rqkk-lQto)" stroke-linecap="round"><g transform="translate(1868.9782779041884 706.2989162075492) rotate(0 -218.65788425501432 -78.1742628713871)"><path d="M0.43 0.04 C-72.47 -25.88, -363.93 -130.24, -437.11 -156.39 M-0.8 -0.99 C-73.83 -26.65, -365.17 -129.18, -437.75 -155" stroke="#5f3dc4" stroke-width="1" fill="none"></path></g><g transform="translate(1868.9782779041884 706.2989162075492) rotate(0 -218.65788425501432 -78.1742628713871)"><path d="M-407.68 -154.29 C-417.93 -156.68, -428.36 -156.01, -438.67 -153.88 M-408.39 -155.66 C-418.75 -154.99, -430.55 -154.71, -437.7 -154.93" stroke="#5f3dc4" stroke-width="1" fill="none"></path></g><g transform="translate(1868.9782779041884 706.2989162075492) rotate(0 -218.65788425501432 -78.1742628713871)"><path d="M-414.52 -134.94 C-422.41 -143.61, -430.64 -149.2, -438.67 -153.88 M-415.23 -136.31 C-422.95 -142.86, -432.19 -149.82, -437.7 -154.93" stroke="#5f3dc4" stroke-width="1" fill="none"></path></g></g><mask id="mask-OYLxgtCPx678rqkk-lQto"><rect x="0" y="0" fill="#fff" width="2406.684541823447" height="962.4028154580615"></rect><rect x="1571.0952234592078" y="615.746966582293" fill="#000" width="158.05984497070312" height="25" opacity="1"></rect></mask><g transform="translate(1571.0952234592078 615.746966582293) rotate(0 79.22517018996632 12.377686753869057)"><text x="79.02992248535156" y="0" font-family="Virgil, Segoe UI Emoji" font-size="20px" fill="#5f3dc4" text-anchor="middle" style="white-space: pre;" direction="ltr" dominant-baseline="text-before-edge">payment reports</text></g><g stroke-linecap="round" transform="translate(2372.6666666666665 974.1666666666665) rotate(0 58 47.5)"><path d="M80.02 4.07 C88.85 6.35, 97.55 12.62, 103.33 18.79 C109.1 24.96, 113.23 33.24, 114.67 41.06 C116.11 48.88, 115.6 58.34, 111.97 65.71 C108.34 73.07, 100.41 80.3, 92.92 85.26 C85.43 90.22, 76.42 94.28, 67.03 95.49 C57.63 96.69, 45.59 95.55, 36.54 92.52 C27.48 89.49, 18.81 83.87, 12.71 77.32 C6.61 70.77, 1.34 61, -0.07 53.21 C-1.48 45.42, 0.44 37.61, 4.24 30.56 C8.04 23.51, 15.1 15.84, 22.73 10.91 C30.37 5.98, 40.09 2.14, 50.07 0.97 C60.04 -0.2, 76.9 3.1, 82.6 3.89 C88.31 4.67, 84.66 4.96, 84.28 5.7 M46.23 0.75 C54.9 -1.29, 66.85 0.65, 75.74 3.15 C84.63 5.65, 93.21 10.03, 99.57 15.73 C105.94 21.44, 111.81 29.75, 113.95 37.39 C116.09 45.04, 114.99 54.28, 112.42 61.62 C109.85 68.95, 105.54 75.93, 98.53 81.4 C91.52 86.86, 80.12 92.49, 70.35 94.39 C60.58 96.29, 48.97 95.27, 39.92 92.78 C30.86 90.29, 22.4 85.03, 16.02 79.46 C9.63 73.88, 3.66 67.12, 1.59 59.35 C-0.48 51.58, 0.59 40.64, 3.57 32.85 C6.56 25.05, 12.4 17.88, 19.51 12.6 C26.62 7.32, 42.01 2.96, 46.26 1.15 C50.51 -0.65, 44.98 1.01, 45.02 1.77" stroke="#000000" stroke-width="1" fill="none"></path></g><g transform="translate(2401.884484344175 1009.0790945603055) rotate(0 28.769989013671875 12.5)"><text x="28.769989013671875" y="0" font-family="Virgil, Segoe UI Emoji" font-size="20px" fill="#000000" text-anchor="middle" style="white-space: pre;" direction="ltr" dominant-baseline="text-before-edge">MNGR</text></g><g stroke-linecap="round" transform="translate(1915.6666666666663 966.6666666666665) rotate(0 50.83333333333337 19.16666666666663)"><path d="M9.58 0 M9.58 0 C41.69 -1.35, 72.45 -1.44, 92.08 0 M9.58 0 C39.39 -0.12, 68.4 0.09, 92.08 0 M92.08 0 C99.18 1.35, 100.31 3.82, 101.67 9.58 M92.08 0 C97.52 0.57, 100.18 3.23, 101.67 9.58 M101.67 9.58 C102.26 15.7, 101.43 24.84, 101.67 28.75 M101.67 9.58 C102.3 14.61, 102.25 20.35, 101.67 28.75 M101.67 28.75 C103.07 35.12, 97.88 37.9, 92.08 38.33 M101.67 28.75 C101.68 35.03, 97.21 37.82, 92.08 38.33 M92.08 38.33 C75.45 38.4, 55.98 39.86, 9.58 38.33 M92.08 38.33 C60.75 38.53, 30.55 36.98, 9.58 38.33 M9.58 38.33 C2.64 38.61, -0.74 34.63, 0 28.75 M9.58 38.33 C2.53 38.48, -1.81 35.92, 0 28.75 M0 28.75 C0.81 23.26, 0.14 19.5, 0 9.58 M0 28.75 C1.01 23.04, -0.49 16.9, 0 9.58 M0 9.58 C0.43 3.18, 2.89 -1, 9.58 0 M0 9.58 C1.53 0.98, 1.05 0.17, 9.58 0" stroke="#000000" stroke-width="1" fill="none"></path></g><g transform="translate(1946.9700164794917 973.3333333333331) rotate(0 19.529983520507812 12.5)"><text x="19.529983520507812" y="0" font-family="Virgil, Segoe UI Emoji" font-size="20px" fill="#000000" text-anchor="middle" style="white-space: pre;" direction="ltr" dominant-baseline="text-before-edge">cron</text></g><g transform="translate(2416.8507464157633 707.850058124979) rotate(0 281.8697509765625 37.5)"><text x="0" y="0" font-family="Virgil, Segoe UI Emoji" font-size="20px" fill="#000000" text-anchor="start" style="white-space: pre;" direction="ltr" dominant-baseline="text-before-edge">critical part of the system</text><text x="0" y="25" font-family="Virgil, Segoe UI Emoji" font-size="20px" fill="#000000" text-anchor="start" style="white-space: pre;" direction="ltr" dominant-baseline="text-before-edge">processed asyncronously</text><text x="0" y="50" font-family="Virgil, Segoe UI Emoji" font-size="20px" fill="#000000" text-anchor="start" style="white-space: pre;" direction="ltr" dominant-baseline="text-before-edge">must not be affected by other parts deploy/development</text></g><g transform="translate(600.974032683805 469.9675404545613) rotate(0 190.2298126220703 37.5)"><text x="0" y="0" font-family="Virgil, Segoe UI Emoji" font-size="20px" fill="#000000" text-anchor="start" style="white-space: pre;" direction="ltr" dominant-baseline="text-before-edge">core entities coupled</text><text x="0" y="25" font-family="Virgil, Segoe UI Emoji" font-size="20px" fill="#000000" text-anchor="start" style="white-space: pre;" direction="ltr" dominant-baseline="text-before-edge">different backends for different users</text><text x="0" y="50" font-family="Virgil, Segoe UI Emoji" font-size="20px" fill="#000000" text-anchor="start" style="white-space: pre;" direction="ltr" dominant-baseline="text-before-edge"></text></g><g transform="translate(1149.7859668252092 686.2984728725191) rotate(0 163.10984802246094 25)"><text x="0" y="0" font-family="Virgil, Segoe UI Emoji" font-size="20px" fill="#000000" text-anchor="start" style="white-space: pre;" direction="ltr" dominant-baseline="text-before-edge">stream core data to secondary</text><text x="0" y="25" font-family="Virgil, Segoe UI Emoji" font-size="20px" fill="#000000" text-anchor="start" style="white-space: pre;" direction="ltr" dominant-baseline="text-before-edge">services so they don't affect us</text></g><g mask="url(#mask-iC2q1Bidt3AhNx6VtgQyA)" stroke-linecap="round"><g transform="translate(194.09263120974902 624.1033525550645) rotate(0 93.71503476248604 -0.8579679628582202)"><path d="M1.16 0.29 C31.98 -0.14, 154.05 -1.62, 185 -2.01 M0.31 -0.6 C31.48 -0.89, 156.08 -0.47, 187.12 -0.5" stroke="#000000" stroke-width="1" fill="none"></path></g><g transform="translate(194.09263120974902 624.1033525550645) rotate(0 93.71503476248604 -0.8579679628582202)"><path d="M159.4 7.82 C167.42 7.59, 175.98 4.74, 186.08 0.28 M157.92 10.4 C168.1 6.23, 178.3 2.47, 186.47 0.41" stroke="#000000" stroke-width="1" fill="none"></path></g><g transform="translate(194.09263120974902 624.1033525550645) rotate(0 93.71503476248604 -0.8579679628582202)"><path d="M159.43 -12.7 C167.54 -6.65, 176.1 -3.21, 186.08 0.28 M157.95 -10.12 C168.21 -7.28, 178.4 -4.05, 186.47 0.41" stroke="#000000" stroke-width="1" fill="none"></path></g></g><mask id="mask-iC2q1Bidt3AhNx6VtgQyA"><rect x="0" y="0" fill="#fff" width="480.2406098483741" height="726.0667334315701"></rect><rect x="267.3566382292569" y="610.6216621168116" fill="#000" width="39.619964599609375" height="25" opacity="1"></rect></mask><g transform="translate(267.3566382292569 610.6216621168116) rotate(0 20.451027742978184 12.623722475394606)"><text x="19.809982299804688" y="0" font-family="Virgil, Segoe UI Emoji" font-size="20px" fill="#000000" text-anchor="middle" style="white-space: pre;" direction="ltr" dominant-baseline="text-before-edge">sync</text></g><g mask="url(#mask-wMqkAx5P06tQMg4frdzuW)" stroke-linecap="round"><g transform="translate(207.02498293350982 687.4426686826686) rotate(0 88.91228555533677 -1.0791174897897875)"><path d="M-0.22 0.69 C29.18 0.34, 147.58 -0.74, 177.47 -1.09 M-1.79 0.01 C27.87 -0.77, 149.54 -2.25, 179.61 -2.85" stroke="#5f3dc4" stroke-width="1" fill="none"></path></g><g transform="translate(207.02498293350982 687.4426686826686) rotate(0 88.91228555533677 -1.0791174897897875)"><path d="M152.74 6.06 C163.63 4.64, 174 0.54, 180.01 -2.71 M151 8.23 C160.2 4.43, 168.63 1.67, 179.99 -1.86" stroke="#5f3dc4" stroke-width="1" fill="none"></path></g><g transform="translate(207.02498293350982 687.4426686826686) rotate(0 88.91228555533677 -1.0791174897897875)"><path d="M152.41 -14.46 C163.6 -7.85, 174.1 -3.93, 180.01 -2.71 M150.68 -12.29 C160.1 -9.86, 168.62 -6.39, 179.99 -1.86" stroke="#5f3dc4" stroke-width="1" fill="none"></path></g></g><mask id="mask-wMqkAx5P06tQMg4frdzuW"><rect x="0" y="0" fill="#fff" width="485.5709455337636" height="789.2356735327007"></rect><rect x="229.34801306176172" y="674.0461662576524" fill="#000" width="133.89990234375" height="25" opacity="1"></rect></mask><g transform="translate(229.34801306176172 674.0461662576524) rotate(0 66.58925542708486 12.317384935226293)"><text x="66.949951171875" y="0" font-family="Virgil, Segoe UI Emoji" font-size="20px" fill="#5f3dc4" text-anchor="middle" style="white-space: pre;" direction="ltr" dominant-baseline="text-before-edge">async (kafka)</text></g><g stroke-linecap="round" transform="translate(1333.5784263534238 600.8480992509233) rotate(0 68.51087216006601 25.28924811277604)"><path d="M1.49 5.27 C1.49 5.27, 1.49 5.27, 1.49 5.27 M1.49 5.27 C1.49 5.27, 1.49 5.27, 1.49 5.27 M1.88 10.91 C3.92 8.18, 6.84 5.28, 7.79 4.12 M1.88 10.91 C4.37 8.33, 6.23 6.26, 7.79 4.12 M1.62 17.31 C5.5 13.75, 9.54 7.66, 14.74 2.22 M1.62 17.31 C6.09 12.08, 12.57 5.3, 14.74 2.22 M2.02 22.95 C6.06 19.5, 10.65 13.46, 20.39 1.82 M2.02 22.95 C7.84 17.46, 12.28 10.87, 20.39 1.82 M1.76 29.35 C10.35 21.59, 14.68 12.63, 25.37 2.18 M1.76 29.35 C8.25 20.49, 14 14.34, 25.37 2.18 M1.5 35.75 C11.25 27.36, 18 16.36, 31.02 1.79 M1.5 35.75 C8.54 26.32, 18.27 17.25, 31.02 1.79 M1.23 42.15 C14.83 27.97, 25.54 15.87, 36 2.15 M1.23 42.15 C13.64 28.65, 25.85 14.01, 36 2.15 M2.94 46.28 C17.3 29.97, 31.16 13.47, 40.99 2.51 M2.94 46.28 C13.48 33.16, 24.95 21.48, 40.99 2.51 M5.96 48.91 C22.96 30.95, 38.1 13.11, 46.63 2.11 M5.96 48.91 C17.57 35.53, 29.98 21.43, 46.63 2.11 M8.98 51.53 C21.42 38.27, 32.81 24.61, 51.62 2.47 M8.98 51.53 C24.09 35.05, 38.32 17.32, 51.62 2.47 M14.62 51.14 C23.24 42.47, 32.21 31.37, 57.26 2.08 M14.62 51.14 C27.23 34.64, 40.92 19.11, 57.26 2.08 M19.61 51.5 C29.65 40.36, 38.56 29.04, 62.25 2.44 M19.61 51.5 C30.61 40.3, 39.64 26.7, 62.25 2.44 M24.6 51.86 C42.58 33.61, 59.12 11.09, 67.9 2.04 M24.6 51.86 C38.91 34.15, 52.93 18.94, 67.9 2.04 M30.24 51.46 C38.47 38.98, 49.59 29.17, 72.88 2.4 M30.24 51.46 C42.01 37.13, 55.1 21.83, 72.88 2.4 M35.23 51.82 C46.79 35.76, 63.41 22.13, 77.87 2.76 M35.23 51.82 C49.16 37.61, 62.58 22.1, 77.87 2.76 M40.87 51.43 C54.03 37.86, 63.11 23.05, 83.51 2.37 M40.87 51.43 C57.97 33.08, 74.41 14.28, 83.51 2.37 M45.86 51.79 C58.15 37.95, 67.73 24.32, 88.5 2.73 M45.86 51.79 C61.47 34.33, 75.67 18.19, 88.5 2.73 M51.5 51.39 C68.82 35.48, 82.95 15.34, 94.14 2.34 M51.5 51.39 C65.01 36.31, 78.98 20.02, 94.14 2.34 M56.49 51.75 C72.81 33.41, 89.43 14.05, 99.13 2.7 M56.49 51.75 C74.05 31.52, 90.58 13.95, 99.13 2.7 M61.47 52.11 C72.58 39.33, 86.37 24.19, 104.77 2.3 M61.47 52.11 C73.79 37.85, 84.78 24.97, 104.77 2.3 M67.12 51.72 C80.14 36.57, 96.41 18.59, 109.76 2.66 M67.12 51.72 C81.01 35.11, 96.9 17.96, 109.76 2.66 M72.1 52.08 C86.64 34.61, 98.78 18.62, 114.75 3.02 M72.1 52.08 C86.07 35.62, 99.07 20.53, 114.75 3.02 M77.75 51.68 C91.34 36.25, 101.89 25.29, 120.39 2.63 M77.75 51.68 C92.45 35.64, 106.01 19.99, 120.39 2.63 M82.73 52.04 C98.65 36.31, 112.56 18.62, 125.38 2.99 M82.73 52.04 C96.73 35.79, 109.95 19.83, 125.38 2.99 M88.38 51.65 C106.45 32.42, 122.82 12.9, 131.68 1.84 M88.38 51.65 C98.81 41.13, 106.26 30.31, 131.68 1.84 M93.36 52.01 C103.18 40.16, 118.1 26.14, 134.69 4.46 M93.36 52.01 C104.65 39.5, 113.88 28.11, 134.69 4.46 M98.35 52.37 C111.71 33.38, 128.88 17.94, 137.71 7.09 M98.35 52.37 C111.75 37.88, 124 22.1, 137.71 7.09 M103.99 51.97 C112.86 41.98, 124.33 28.96, 138.76 11.97 M103.99 51.97 C111.39 42.4, 121.34 32.66, 138.76 11.97 M108.98 52.33 C117.06 45.74, 124.18 33.82, 139.16 17.62 M108.98 52.33 C118.29 41.74, 127.46 29.6, 139.16 17.62 M114.62 51.94 C122.36 44.78, 130.95 34.63, 138.9 24.02 M114.62 51.94 C122.66 42.04, 131.24 33.17, 138.9 24.02 M119.61 52.3 C121.88 46.92, 127.78 41.99, 138.64 30.41 M119.61 52.3 C124.29 45.23, 130.06 38.29, 138.64 30.41 M125.25 51.91 C129.4 49.8, 129.5 44.12, 138.37 36.81 M125.25 51.91 C130.98 47.02, 135.52 40.93, 138.37 36.81" stroke="#e64980" stroke-width="0.5" fill="none"></path><path d="M12.64 0 M12.64 0 C42.2 0.88, 70.08 -0.79, 124.38 0 M12.64 0 C46.16 -1.55, 79.82 -0.59, 124.38 0 M124.38 0 C131.32 -0.45, 135.93 5.68, 137.02 12.64 M124.38 0 C131.27 1.01, 134.98 3.77, 137.02 12.64 M137.02 12.64 C136.61 18.9, 137.61 26.98, 137.02 37.93 M137.02 12.64 C136.08 18.65, 137.16 24.68, 137.02 37.93 M137.02 37.93 C137.76 47.44, 133.32 52.15, 124.38 50.58 M137.02 37.93 C135.12 48.08, 131.17 51.43, 124.38 50.58 M124.38 50.58 C101.17 48.06, 81.14 49.07, 12.64 50.58 M124.38 50.58 C89.56 50.1, 55.43 49.43, 12.64 50.58 M12.64 50.58 C2.24 48.95, 0.6 44.56, 0 37.93 M12.64 50.58 C4.96 49.78, -0.49 48.1, 0 37.93 M0 37.93 C2.1 29.79, 0.43 18.83, 0 12.64 M0 37.93 C0.2 31.92, 0.53 26.01, 0 12.64 M0 12.64 C-0.87 3.81, 3.29 0.55, 12.64 0 M0 12.64 C-0.36 2.56, 2.64 1.26, 12.64 0" stroke="#000000" stroke-width="1" fill="none"></path></g><g transform="translate(1342.2545130520639 615.1111542803545) rotate(0 59.83478546142578 11.026193083344786)"><text x="59.83478546142578" y="0" font-family="Virgil, Segoe UI Emoji" font-size="8.820954466675829px" fill="#000000" text-anchor="middle" style="white-space: pre;" direction="ltr" dominant-baseline="text-before-edge">how to keep expanded help </text><text x="59.83478546142578" y="11.026193083344786" font-family="Virgil, Segoe UI Emoji" font-size="8.820954466675829px" fill="#000000" text-anchor="middle" style="white-space: pre;" direction="ltr" dominant-baseline="text-before-edge">requests up-to-date?</text></g></svg>